<?xml version="1.0" encoding="us-ascii" standalone="no"?><svg xmlns="http://www.w3.org/2000/svg" xmlns:xlink="http://www.w3.org/1999/xlink" contentStyleType="text/css" height="421px" preserveAspectRatio="none" style="width:826px;height:421px;" version="1.1" viewBox="0 0 826 421" width="826px" zoomAndPan="magnify"><defs><filter height="300%" id="fzsjt81o0988e" width="300%" x="-1" y="-1"><feGaussianBlur result="blurOut" stdDeviation="2.0"/><feColorMatrix in="blurOut" result="blurOut2" type="matrix" values="0 0 0 0 0 0 0 0 0 0 0 0 0 0 0 0 0 0 .4 0"/><feOffset dx="4.0" dy="4.0" in="blurOut2" result="blurOut3"/><feBlend in="SourceGraphic" in2="blurOut3" mode="normal"/></filter></defs><g><!--cluster dotnet--><g id="cluster_dotnet"><polygon fill="none" filter="url(#fzsjt81o0988e)" points="16,6,209,6,216,29.6094,585,29.6094,585,412,16,412,16,6" style="stroke:#000000;stroke-width:1.5;"/><line style="stroke:#000000;stroke-width:1.5;" x1="16" x2="216" y1="29.6094" y2="29.6094"/><text fill="#000000" font-family="sans-serif" font-size="14" lengthAdjust="spacing" textLength="187" x="20" y="22.5332">.NET Application (C# classes)</text></g><!--cluster domain--><g id="cluster_domain"><polygon fill="none" filter="url(#fzsjt81o0988e)" points="285,58,381,58,388,81.6094,553,81.6094,553,380,285,380,285,58" style="stroke:#000000;stroke-width:1.5;"/><line style="stroke:#000000;stroke-width:1.5;" x1="285" x2="388" y1="81.6094" y2="81.6094"/><text fill="#000000" font-family="sans-serif" font-size="14" lengthAdjust="spacing" textLength="90" x="289" y="74.5332">Domain Model</text></g><!--cluster database--><g id="cluster_database"><polygon fill="none" filter="url(#fzsjt81o0988e)" points="625,59,799,59,806,82.6094,809,82.6094,809,379.5,625,379.5,625,59" style="stroke:#000000;stroke-width:1.5;"/><line style="stroke:#000000;stroke-width:1.5;" x1="625" x2="806" y1="82.6094" y2="82.6094"/><text fill="#000000" font-family="sans-serif" font-size="14" lengthAdjust="spacing" textLength="168" x="629" y="75.5332">Database Schema (tables)</text></g><!--class ChatDBContext--><g id="elem_ChatDBContext"><rect codeLine="11" fill="#FEFECE" filter="url(#fzsjt81o0988e)" height="96.4375" id="ChatDBContext" style="stroke:#A80036;stroke-width:1.0;" width="210" x="59" y="103"/><text fill="#000000" font-family="sans-serif" font-size="14" lengthAdjust="spacing" textLength="97" x="115.5" y="122.5332">ChatDBContext</text><line style="stroke:#A80036;stroke-width:1.0;" x1="60" x2="268" y1="130.6094" y2="130.6094"/><ellipse cx="70" cy="144.9141" fill="none" rx="3" ry="3" style="stroke:#038048;stroke-width:1.0;"/><text fill="#000000" font-family="sans-serif" font-size="14" lengthAdjust="spacing" textLength="184" x="79" y="149.1426">Messages: DbSet&lt;Message&gt;</text><ellipse cx="70" cy="162.5234" fill="none" rx="3" ry="3" style="stroke:#038048;stroke-width:1.0;"/><text fill="#000000" font-family="sans-serif" font-size="14" lengthAdjust="spacing" textLength="128" x="79" y="166.752">Users: DbSet&lt;User&gt;</text><line style="stroke:#A80036;stroke-width:1.0;" x1="60" x2="268" y1="173.8281" y2="173.8281"/><ellipse cx="70" cy="188.1328" fill="#84BE84" rx="3" ry="3" style="stroke:#038048;stroke-width:1.0;"/><text fill="#000000" font-family="sans-serif" font-size="14" lengthAdjust="spacing" textLength="119" x="79" y="192.3613">ChatDBContext(...)</text></g><!--class User--><g id="elem_User"><rect codeLine="20" fill="#FEFECE" filter="url(#fzsjt81o0988e)" height="96.4375" id="User" style="stroke:#A80036;stroke-width:1.0;" width="236" x="301" y="268"/><text fill="#000000" font-family="sans-serif" font-size="14" lengthAdjust="spacing" textLength="29" x="404.5" y="287.5332">User</text><line style="stroke:#A80036;stroke-width:1.0;" x1="302" x2="536" y1="295.6094" y2="295.6094"/><ellipse cx="312" cy="309.9141" fill="none" rx="3" ry="3" style="stroke:#038048;stroke-width:1.0;"/><text fill="#000000" font-family="sans-serif" font-size="14" lengthAdjust="spacing" textLength="63" x="321" y="314.1426">UserId: int</text><ellipse cx="312" cy="327.5234" fill="none" rx="3" ry="3" style="stroke:#038048;stroke-width:1.0;"/><text fill="#000000" font-family="sans-serif" font-size="14" lengthAdjust="spacing" textLength="79" x="321" y="331.752">Name: string</text><ellipse cx="312" cy="345.1328" fill="none" rx="3" ry="3" style="stroke:#038048;stroke-width:1.0;"/><text fill="#000000" font-family="sans-serif" font-size="14" lengthAdjust="spacing" textLength="210" x="321" y="349.3613">Messages: ICollection&lt;Message&gt;</text><line style="stroke:#A80036;stroke-width:1.0;" x1="302" x2="536" y1="356.4375" y2="356.4375"/></g><!--class Message--><g id="elem_Message"><rect codeLine="27" fill="#FEFECE" filter="url(#fzsjt81o0988e)" height="114.0469" id="Message" style="stroke:#A80036;stroke-width:1.0;" width="117" x="360.5" y="94"/><text fill="#000000" font-family="sans-serif" font-size="14" lengthAdjust="spacing" textLength="57" x="390.5" y="113.5332">Message</text><line style="stroke:#A80036;stroke-width:1.0;" x1="361.5" x2="476.5" y1="121.6094" y2="121.6094"/><ellipse cx="371.5" cy="135.9141" fill="none" rx="3" ry="3" style="stroke:#038048;stroke-width:1.0;"/><text fill="#000000" font-family="sans-serif" font-size="14" lengthAdjust="spacing" textLength="91" x="380.5" y="140.1426">MessageId: int</text><ellipse cx="371.5" cy="153.5234" fill="none" rx="3" ry="3" style="stroke:#038048;stroke-width:1.0;"/><text fill="#000000" font-family="sans-serif" font-size="14" lengthAdjust="spacing" textLength="63" x="380.5" y="157.752">UserId: int</text><ellipse cx="371.5" cy="171.1328" fill="none" rx="3" ry="3" style="stroke:#038048;stroke-width:1.0;"/><text fill="#000000" font-family="sans-serif" font-size="14" lengthAdjust="spacing" textLength="70" x="380.5" y="175.3613">Text: string</text><ellipse cx="371.5" cy="188.7422" fill="none" rx="3" ry="3" style="stroke:#038048;stroke-width:1.0;"/><text fill="#000000" font-family="sans-serif" font-size="14" lengthAdjust="spacing" textLength="66" x="380.5" y="192.9707">User: User</text><line style="stroke:#A80036;stroke-width:1.0;" x1="361.5" x2="476.5" y1="200.0469" y2="200.0469"/></g><!--class message_db--><g id="elem_message_db"><rect codeLine="44" fill="#FEFECE" filter="url(#fzsjt81o0988e)" height="96.4375" id="message_db" style="stroke:#A80036;stroke-width:1.0;" width="80" x="686" y="103"/><text fill="#000000" font-family="sans-serif" font-size="14" lengthAdjust="spacing" textLength="57" x="697.5" y="122.5332">Message</text><line style="stroke:#A80036;stroke-width:1.0;" x1="687" x2="765" y1="130.6094" y2="130.6094"/><text fill="#000000" font-family="sans-serif" font-size="14" lengthAdjust="spacing" textLength="68" x="692" y="149.1426">MessageId</text><text fill="#000000" font-family="sans-serif" font-size="14" lengthAdjust="spacing" textLength="40" x="692" y="166.752">UserId</text><line style="stroke:#A80036;stroke-width:1.0;" x1="687" x2="765" y1="173.8281" y2="173.8281"/><text fill="#000000" font-family="sans-serif" font-size="14" lengthAdjust="spacing" textLength="27" x="692" y="192.3613">Text</text></g><!--class user_db--><g id="elem_user_db"><rect codeLine="51" fill="#FEFECE" filter="url(#fzsjt81o0988e)" height="78.8281" id="user_db" style="stroke:#A80036;stroke-width:1.0;" width="52" x="700" y="276.5"/><text fill="#000000" font-family="sans-serif" font-size="14" lengthAdjust="spacing" textLength="29" x="711.5" y="296.0332">User</text><line style="stroke:#A80036;stroke-width:1.0;" x1="701" x2="751" y1="304.1094" y2="304.1094"/><text fill="#000000" font-family="sans-serif" font-size="14" lengthAdjust="spacing" textLength="40" x="706" y="322.6426">UserId</text><line style="stroke:#A80036;stroke-width:1.0;" x1="701" x2="751" y1="329.7188" y2="329.7188"/><text fill="#000000" font-family="sans-serif" font-size="14" lengthAdjust="spacing" textLength="36" x="706" y="348.252">Name</text></g><!--link Message to User--><g id="link_Message_User"><path codeLine="35" d="M419,214.25 C419,233.7 419,243.23 419,261.89 " fill="none" id="Message-User" style="stroke:#A80036;stroke-width:1.0;"/><polygon fill="#A80036" points="419,208.25,415,217.25,419,213.25,423,217.25,419,208.25" style="stroke:#A80036;stroke-width:1.0;"/><polygon fill="#A80036" points="419,267.89,423,258.89,419,262.89,415,258.89,419,267.89" style="stroke:#A80036;stroke-width:1.0;"/><text fill="#000000" font-family="sans-serif" font-size="13" lengthAdjust="spacing" textLength="20" x="397.7813" y="229.716">0..*</text><text fill="#000000" font-family="sans-serif" font-size="13" lengthAdjust="spacing" textLength="7" x="411.4859" y="257.1376">1</text></g><!--link message_db to user_db--><g id="link_message_db_user_db"><path codeLine="59" d="M726,217.17 C726,241.71 726,245.18 726,268.39 " fill="none" id="message_db-user_db" style="stroke:#A80036;stroke-width:1.0;"/><line style="stroke:#A80036;stroke-width:1.0;" x1="726" x2="720" y1="207.17" y2="199.17"/><line style="stroke:#A80036;stroke-width:1.0;" x1="726" x2="732" y1="207.17" y2="199.17"/><line style="stroke:#A80036;stroke-width:1.0;" x1="726" x2="726" y1="207.17" y2="199.17"/><ellipse cx="726" cy="213.17" fill="none" rx="4" ry="4" style="stroke:#A80036;stroke-width:1.0;"/><line style="stroke:#A80036;stroke-width:1.0;" x1="730" x2="722" y1="272.39" y2="272.39"/><line style="stroke:#A80036;stroke-width:1.0;" x1="730" x2="722" y1="269.39" y2="269.39"/><line style="stroke:#A80036;stroke-width:1.0;" x1="726" x2="726" y1="268.39" y2="276.39"/></g><!--link dotnet to database--><g id="link_dotnet_database"><path codeLine="61" d="M585.2128,76 C587.9216,76 590.5328,76 593.0418,76 C598.0598,76 602.6689,76 606.832,76 C610.9951,76 614.7122,76 617.946,76 C619.5629,76 621.059,76 622.4297,76 C623.115,76 623.769,76 624.391,76 C624.5465,76 624.7,76 624.8515,76 C624.8894,76 606.9271,76 606.9648,76 " fill="none" id="dotnet-to-database" style="stroke:#A80036;stroke-width:1.0;"/><polygon fill="none" points="624.9648,76,606.9648,70,606.9648,82,624.9648,76" style="stroke:#A80036;stroke-width:1.0;"/></g><!--SRC=[PLB1QiCm33t7No6ymzgDX6t7K0fRiaCFxQNTURY9Q4sTECGQhBJvzzcEaxGCGf2UfFUUPJ-QGYY4DsPEiePM6sICT0EaOQ-9T0MbRB4WgMl6Zh94A6HRAFJzZMX51KhMIES6GRTqr8mreZY90m9FDfyxU6yQ9GlX262MFK2XX35evXo4WLAJdOKBOv778JiAoZyoNHF-4eikB8gUOOt6M4AJGhxV8Yr2llJ5BuFjM7593zyHpP8acREeipAZkLnNmfvuhKjKmOi7d9TWnh7Pn9a8Ggio1LbJ3sn4XIaOQcLzw979w2hJIlLhkxNRJUG1dVW3S2VnJtDdJtElwLhImQhd3qJ0NvBaYSCYZfV0NtdVuxTWl-cMSa5YBmp2jZXY9M1cKpLUq51qQy6Q99s11m7VKFNnTxc7owIzActScxT17DlVpbzeTqFZwfxZnmO3mVsGM_7W-4Qfqt5ylGvpZ8Ld55-Nes7s22dmIZJ6FcNE_W00]--></g></svg>