<?xml version="1.0" encoding="us-ascii" standalone="no"?><svg xmlns="http://www.w3.org/2000/svg" xmlns:xlink="http://www.w3.org/1999/xlink" contentStyleType="text/css" height="346px" preserveAspectRatio="none" style="width:723px;height:346px;" version="1.1" viewBox="0 0 723 346" width="723px" zoomAndPan="magnify"><defs><filter height="300%" id="f1iysnudssb03o" width="300%" x="-1" y="-1"><feGaussianBlur result="blurOut" stdDeviation="2.0"/><feColorMatrix in="blurOut" result="blurOut2" type="matrix" values="0 0 0 0 0 0 0 0 0 0 0 0 0 0 0 0 0 0 .4 0"/><feOffset dx="4.0" dy="4.0" in="blurOut2" result="blurOut3"/><feBlend in="SourceGraphic" in2="blurOut3" mode="normal"/></filter></defs><g><!--cluster domain--><g id="cluster_domain"><polygon fill="none" filter="url(#f1iysnudssb03o)" points="438.5,6,534.5,6,541.5,29.6094,706.5,29.6094,706.5,337,438.5,337,438.5,6" style="stroke:#000000;stroke-width:1.5;"/><line style="stroke:#000000;stroke-width:1.5;" x1="438.5" x2="541.5" y1="29.6094" y2="29.6094"/><text fill="#000000" font-family="sans-serif" font-size="14" lengthAdjust="spacing" textLength="90" x="442.5" y="22.5332">Domain Model</text></g><!--class User--><g id="elem_User"><rect codeLine="20" fill="#FEFECE" filter="url(#f1iysnudssb03o)" height="100.8281" id="User" style="stroke:#A80036;stroke-width:1.0;" width="236" x="454.5" y="220"/><ellipse cx="553.75" cy="236" fill="#ADD1B2" rx="11" ry="11" style="stroke:#A80036;stroke-width:1.0;"/><path d="M556.5156,231.875 Q556.6719,231.6563 556.8594,231.5469 Q557.0469,231.4375 557.2656,231.4375 Q557.6406,231.4375 557.875,231.7031 Q558.1094,231.9531 558.1094,232.5625 L558.1094,234.0156 Q558.1094,234.625 557.875,234.8906 Q557.6406,235.1563 557.2656,235.1563 Q556.9219,235.1563 556.7188,234.9531 Q556.5156,234.7656 556.4063,234.25 Q556.3594,233.8906 556.1719,233.7031 Q555.8438,233.3281 555.2344,233.1094 Q554.625,232.8906 554,232.8906 Q553.2344,232.8906 552.5938,233.2188 Q551.9688,233.5469 551.4688,234.2969 Q550.9844,235.0469 550.9844,236.0781 L550.9844,237.1719 Q550.9844,238.4063 551.875,239.2344 Q552.7656,240.0469 554.3594,240.0469 Q555.2969,240.0469 555.9531,239.7969 Q556.3438,239.6406 556.7656,239.2031 Q557.0313,238.9375 557.1719,238.8594 Q557.3281,238.7813 557.5313,238.7813 Q557.8594,238.7813 558.1094,239.0469 Q558.375,239.2969 558.375,239.6406 Q558.375,239.9844 558.0313,240.3906 Q557.5313,240.9688 556.7344,241.2969 Q555.6563,241.75 554.3594,241.75 Q552.8438,241.75 551.6406,241.125 Q550.6563,240.625 549.9688,239.5625 Q549.2813,238.4844 549.2813,237.2031 L549.2813,236.0469 Q549.2813,234.7188 549.8906,233.5781 Q550.5156,232.4219 551.6094,231.8125 Q552.7031,231.1875 553.9375,231.1875 Q554.6719,231.1875 555.3125,231.3594 Q555.9688,231.5156 556.5156,231.875 Z " fill="#000000"/><text fill="#000000" font-family="sans-serif" font-size="14" lengthAdjust="spacing" textLength="29" x="574.25" y="241.7285">User</text><line style="stroke:#A80036;stroke-width:1.0;" x1="455.5" x2="689.5" y1="252" y2="252"/><ellipse cx="465.5" cy="266.3047" fill="none" rx="3" ry="3" style="stroke:#038048;stroke-width:1.0;"/><text fill="#000000" font-family="sans-serif" font-size="14" lengthAdjust="spacing" textLength="63" x="474.5" y="270.5332">UserId: int</text><ellipse cx="465.5" cy="283.9141" fill="none" rx="3" ry="3" style="stroke:#038048;stroke-width:1.0;"/><text fill="#000000" font-family="sans-serif" font-size="14" lengthAdjust="spacing" textLength="79" x="474.5" y="288.1426">Name: string</text><ellipse cx="465.5" cy="301.5234" fill="none" rx="3" ry="3" style="stroke:#038048;stroke-width:1.0;"/><text fill="#000000" font-family="sans-serif" font-size="14" lengthAdjust="spacing" textLength="210" x="474.5" y="305.752">Messages: ICollection&lt;Message&gt;</text><line style="stroke:#A80036;stroke-width:1.0;" x1="455.5" x2="689.5" y1="312.8281" y2="312.8281"/></g><!--class Message--><g id="elem_Message"><rect codeLine="27" fill="#FEFECE" filter="url(#f1iysnudssb03o)" height="118.4375" id="Message" style="stroke:#A80036;stroke-width:1.0;" width="117" x="514" y="42"/><ellipse cx="541.6" cy="58" fill="#ADD1B2" rx="11" ry="11" style="stroke:#A80036;stroke-width:1.0;"/><path d="M544.3656,53.875 Q544.5219,53.6563 544.7094,53.5469 Q544.8969,53.4375 545.1156,53.4375 Q545.4906,53.4375 545.725,53.7031 Q545.9594,53.9531 545.9594,54.5625 L545.9594,56.0156 Q545.9594,56.625 545.725,56.8906 Q545.4906,57.1563 545.1156,57.1563 Q544.7719,57.1563 544.5688,56.9531 Q544.3656,56.7656 544.2563,56.25 Q544.2094,55.8906 544.0219,55.7031 Q543.6938,55.3281 543.0844,55.1094 Q542.475,54.8906 541.85,54.8906 Q541.0844,54.8906 540.4438,55.2188 Q539.8188,55.5469 539.3188,56.2969 Q538.8344,57.0469 538.8344,58.0781 L538.8344,59.1719 Q538.8344,60.4063 539.725,61.2344 Q540.6156,62.0469 542.2094,62.0469 Q543.1469,62.0469 543.8031,61.7969 Q544.1938,61.6406 544.6156,61.2031 Q544.8813,60.9375 545.0219,60.8594 Q545.1781,60.7813 545.3813,60.7813 Q545.7094,60.7813 545.9594,61.0469 Q546.225,61.2969 546.225,61.6406 Q546.225,61.9844 545.8813,62.3906 Q545.3813,62.9688 544.5844,63.2969 Q543.5063,63.75 542.2094,63.75 Q540.6938,63.75 539.4906,63.125 Q538.5063,62.625 537.8188,61.5625 Q537.1313,60.4844 537.1313,59.2031 L537.1313,58.0469 Q537.1313,56.7188 537.7406,55.5781 Q538.3656,54.4219 539.4594,53.8125 Q540.5531,53.1875 541.7875,53.1875 Q542.5219,53.1875 543.1625,53.3594 Q543.8188,53.5156 544.3656,53.875 Z " fill="#000000"/><text fill="#000000" font-family="sans-serif" font-size="14" lengthAdjust="spacing" textLength="57" x="558.4" y="63.7285">Message</text><line style="stroke:#A80036;stroke-width:1.0;" x1="515" x2="630" y1="74" y2="74"/><ellipse cx="525" cy="88.3047" fill="none" rx="3" ry="3" style="stroke:#038048;stroke-width:1.0;"/><text fill="#000000" font-family="sans-serif" font-size="14" lengthAdjust="spacing" textLength="91" x="534" y="92.5332">MessageId: int</text><ellipse cx="525" cy="105.9141" fill="none" rx="3" ry="3" style="stroke:#038048;stroke-width:1.0;"/><text fill="#000000" font-family="sans-serif" font-size="14" lengthAdjust="spacing" textLength="63" x="534" y="110.1426">UserId: int</text><ellipse cx="525" cy="123.5234" fill="none" rx="3" ry="3" style="stroke:#038048;stroke-width:1.0;"/><text fill="#000000" font-family="sans-serif" font-size="14" lengthAdjust="spacing" textLength="70" x="534" y="127.752">Text: string</text><ellipse cx="525" cy="141.1328" fill="none" rx="3" ry="3" style="stroke:#038048;stroke-width:1.0;"/><text fill="#000000" font-family="sans-serif" font-size="14" lengthAdjust="spacing" textLength="66" x="534" y="145.3613">User: User</text><line style="stroke:#A80036;stroke-width:1.0;" x1="515" x2="630" y1="152.4375" y2="152.4375"/></g><!--class ChatDBContext--><g id="elem_ChatDBContext"><rect codeLine="10" fill="#FEFECE" filter="url(#f1iysnudssb03o)" height="100.8281" id="ChatDBContext" style="stroke:#A80036;stroke-width:1.0;" width="415" x="7" y="50.5"/><ellipse cx="161.75" cy="66.5" fill="#ADD1B2" rx="11" ry="11" style="stroke:#A80036;stroke-width:1.0;"/><path d="M164.5156,62.375 Q164.6719,62.1563 164.8594,62.0469 Q165.0469,61.9375 165.2656,61.9375 Q165.6406,61.9375 165.875,62.2031 Q166.1094,62.4531 166.1094,63.0625 L166.1094,64.5156 Q166.1094,65.125 165.875,65.3906 Q165.6406,65.6563 165.2656,65.6563 Q164.9219,65.6563 164.7188,65.4531 Q164.5156,65.2656 164.4063,64.75 Q164.3594,64.3906 164.1719,64.2031 Q163.8438,63.8281 163.2344,63.6094 Q162.625,63.3906 162,63.3906 Q161.2344,63.3906 160.5938,63.7188 Q159.9688,64.0469 159.4688,64.7969 Q158.9844,65.5469 158.9844,66.5781 L158.9844,67.6719 Q158.9844,68.9063 159.875,69.7344 Q160.7656,70.5469 162.3594,70.5469 Q163.2969,70.5469 163.9531,70.2969 Q164.3438,70.1406 164.7656,69.7031 Q165.0313,69.4375 165.1719,69.3594 Q165.3281,69.2813 165.5313,69.2813 Q165.8594,69.2813 166.1094,69.5469 Q166.375,69.7969 166.375,70.1406 Q166.375,70.4844 166.0313,70.8906 Q165.5313,71.4688 164.7344,71.7969 Q163.6563,72.25 162.3594,72.25 Q160.8438,72.25 159.6406,71.625 Q158.6563,71.125 157.9688,70.0625 Q157.2813,68.9844 157.2813,67.7031 L157.2813,66.5469 Q157.2813,65.2188 157.8906,64.0781 Q158.5156,62.9219 159.6094,62.3125 Q160.7031,61.6875 161.9375,61.6875 Q162.6719,61.6875 163.3125,61.8594 Q163.9688,62.0156 164.5156,62.375 Z " fill="#000000"/><text fill="#000000" font-family="sans-serif" font-size="14" lengthAdjust="spacing" textLength="97" x="182.25" y="72.2285">ChatDBContext</text><line style="stroke:#A80036;stroke-width:1.0;" x1="8" x2="421" y1="82.5" y2="82.5"/><ellipse cx="18" cy="96.8047" fill="none" rx="3" ry="3" style="stroke:#038048;stroke-width:1.0;"/><text fill="#000000" font-family="sans-serif" font-size="14" lengthAdjust="spacing" textLength="184" x="27" y="101.0332">Messages: DbSet&lt;Message&gt;</text><ellipse cx="18" cy="114.4141" fill="none" rx="3" ry="3" style="stroke:#038048;stroke-width:1.0;"/><text fill="#000000" font-family="sans-serif" font-size="14" lengthAdjust="spacing" textLength="128" x="27" y="118.6426">Users: DbSet&lt;User&gt;</text><line style="stroke:#A80036;stroke-width:1.0;" x1="8" x2="421" y1="125.7188" y2="125.7188"/><ellipse cx="18" cy="140.0234" fill="#84BE84" rx="3" ry="3" style="stroke:#038048;stroke-width:1.0;"/><text fill="#000000" font-family="sans-serif" font-size="14" lengthAdjust="spacing" textLength="389" x="27" y="144.252">ChatDBContext(options: DbContextOptions&lt;ChatDBContext&gt;)</text></g><g id="elem_GMN3"><path d="M17,257.5 L17,283.8516 A0,0 0 0 0 17,283.8516 L412,283.8516 A0,0 0 0 0 412,283.8516 L412,267.5 L402,257.5 L218.5,257.5 L214.5,151.86 L210.5,257.5 L17,257.5 A0,0 0 0 0 17,257.5 " fill="#FBFB77" filter="url(#f1iysnudssb03o)" style="stroke:#A80036;stroke-width:1.0;"/><path d="M402,257.5 L402,267.5 L412,267.5 L402,257.5 " fill="#FBFB77" style="stroke:#A80036;stroke-width:1.0;"/><text fill="#000000" font-family="sans-serif" font-size="13" lengthAdjust="spacing" textLength="374" x="23" y="275.9951">Constructor needs to call parent constructor with same signature</text></g><!--link Message to User--><g id="link_Message_User"><path codeLine="35" d="M572.5,166.28 C572.5,185.76 572.5,195.21 572.5,213.97 " fill="none" id="Message-User" style="stroke:#A80036;stroke-width:1.0;"/><polygon fill="#A80036" points="572.5,160.28,568.5,169.28,572.5,165.28,576.5,169.28,572.5,160.28" style="stroke:#A80036;stroke-width:1.0;"/><polygon fill="#A80036" points="572.5,219.97,576.5,210.97,572.5,214.97,568.5,210.97,572.5,219.97" style="stroke:#A80036;stroke-width:1.0;"/><text fill="#000000" font-family="sans-serif" font-size="13" lengthAdjust="spacing" textLength="20" x="551.2813" y="181.9696">0..*</text><text fill="#000000" font-family="sans-serif" font-size="13" lengthAdjust="spacing" textLength="7" x="565.0078" y="209.2711">1</text></g><!--SRC=[NP3DRi8m48JFx5EiSg4_0hKzHX67meK3xQ7j0nXdIomSRsGlQYl4kzTE32MzPSUJsPrl6hIoX4yGziQXvq00mXqAuvP5kCNQUD9Ys05C6rCJQkErfVw7JddLeZMEvASZP2yD0u2sAWHSDafMpqjsGjy2HvZSuuP2K3iA9QwsRoHLdXVfxIEGlpoaeLT78JVSfKDwLvPU1wKQ-HQtS0B7GkSE_3aEmXBZLn1_qC8U7L4TKkN8mc8iHKvGNnc-Z3GOL4iOpCufEVY8gLDw7u_7OiMjYl0sN9CjK0Mi1-48C1bGf3emYGXoptLTed7IpoynjiIuohXTB_n1MY_PsW7-5QhJ9JPhv-GyNeV_N_OUou-M9KEPxql1EGEBX_dyhi1gDbjWyLWCZaZr5m00]--></g></svg>