<?xml version="1.0" encoding="us-ascii" standalone="no"?><svg xmlns="http://www.w3.org/2000/svg" xmlns:xlink="http://www.w3.org/1999/xlink" contentStyleType="text/css" height="299px" preserveAspectRatio="none" style="width:257px;height:299px;" version="1.1" viewBox="0 0 257 299" width="257px" zoomAndPan="magnify"><defs><filter height="300%" id="f15x1sj14fb2ca" width="300%" x="-1" y="-1"><feGaussianBlur result="blurOut" stdDeviation="2.0"/><feColorMatrix in="blurOut" result="blurOut2" type="matrix" values="0 0 0 0 0 0 0 0 0 0 0 0 0 0 0 0 0 0 .4 0"/><feOffset dx="4.0" dy="4.0" in="blurOut2" result="blurOut3"/><feBlend in="SourceGraphic" in2="blurOut3" mode="normal"/></filter></defs><g><!--class User--><g id="elem_User"><rect codeLine="9" fill="#FEFECE" filter="url(#f15x1sj14fb2ca)" height="100.8281" id="User" style="stroke:#A80036;stroke-width:1.0;" width="236" x="7" y="185"/><ellipse cx="106.25" cy="201" fill="#ADD1B2" rx="11" ry="11" style="stroke:#A80036;stroke-width:1.0;"/><path d="M109.0156,196.875 Q109.1719,196.6563 109.3594,196.5469 Q109.5469,196.4375 109.7656,196.4375 Q110.1406,196.4375 110.375,196.7031 Q110.6094,196.9531 110.6094,197.5625 L110.6094,199.0156 Q110.6094,199.625 110.375,199.8906 Q110.1406,200.1563 109.7656,200.1563 Q109.4219,200.1563 109.2188,199.9531 Q109.0156,199.7656 108.9063,199.25 Q108.8594,198.8906 108.6719,198.7031 Q108.3438,198.3281 107.7344,198.1094 Q107.125,197.8906 106.5,197.8906 Q105.7344,197.8906 105.0938,198.2188 Q104.4688,198.5469 103.9688,199.2969 Q103.4844,200.0469 103.4844,201.0781 L103.4844,202.1719 Q103.4844,203.4063 104.375,204.2344 Q105.2656,205.0469 106.8594,205.0469 Q107.7969,205.0469 108.4531,204.7969 Q108.8438,204.6406 109.2656,204.2031 Q109.5313,203.9375 109.6719,203.8594 Q109.8281,203.7813 110.0313,203.7813 Q110.3594,203.7813 110.6094,204.0469 Q110.875,204.2969 110.875,204.6406 Q110.875,204.9844 110.5313,205.3906 Q110.0313,205.9688 109.2344,206.2969 Q108.1563,206.75 106.8594,206.75 Q105.3438,206.75 104.1406,206.125 Q103.1563,205.625 102.4688,204.5625 Q101.7813,203.4844 101.7813,202.2031 L101.7813,201.0469 Q101.7813,199.7188 102.3906,198.5781 Q103.0156,197.4219 104.1094,196.8125 Q105.2031,196.1875 106.4375,196.1875 Q107.1719,196.1875 107.8125,196.3594 Q108.4688,196.5156 109.0156,196.875 Z " fill="#000000"/><text fill="#000000" font-family="sans-serif" font-size="14" lengthAdjust="spacing" textLength="29" x="126.75" y="206.7285">User</text><line style="stroke:#A80036;stroke-width:1.0;" x1="8" x2="242" y1="217" y2="217"/><ellipse cx="18" cy="231.3047" fill="none" rx="3" ry="3" style="stroke:#038048;stroke-width:1.0;"/><text fill="#000000" font-family="sans-serif" font-size="14" lengthAdjust="spacing" textLength="63" x="27" y="235.5332">UserId: int</text><ellipse cx="18" cy="248.9141" fill="none" rx="3" ry="3" style="stroke:#038048;stroke-width:1.0;"/><text fill="#000000" font-family="sans-serif" font-size="14" lengthAdjust="spacing" textLength="79" x="27" y="253.1426">Name: string</text><ellipse cx="18" cy="266.5234" fill="none" rx="3" ry="3" style="stroke:#038048;stroke-width:1.0;"/><text fill="#000000" font-family="sans-serif" font-size="14" lengthAdjust="spacing" textLength="210" x="27" y="270.752">Messages: ICollection&lt;Message&gt;</text><line style="stroke:#A80036;stroke-width:1.0;" x1="8" x2="242" y1="277.8281" y2="277.8281"/></g><!--class Message--><g id="elem_Message"><rect codeLine="16" fill="#FEFECE" filter="url(#f15x1sj14fb2ca)" height="118.4375" id="Message" style="stroke:#A80036;stroke-width:1.0;" width="117" x="66.5" y="7"/><ellipse cx="94.1" cy="23" fill="#ADD1B2" rx="11" ry="11" style="stroke:#A80036;stroke-width:1.0;"/><path d="M96.8656,18.875 Q97.0219,18.6563 97.2094,18.5469 Q97.3969,18.4375 97.6156,18.4375 Q97.9906,18.4375 98.225,18.7031 Q98.4594,18.9531 98.4594,19.5625 L98.4594,21.0156 Q98.4594,21.625 98.225,21.8906 Q97.9906,22.1563 97.6156,22.1563 Q97.2719,22.1563 97.0688,21.9531 Q96.8656,21.7656 96.7563,21.25 Q96.7094,20.8906 96.5219,20.7031 Q96.1938,20.3281 95.5844,20.1094 Q94.975,19.8906 94.35,19.8906 Q93.5844,19.8906 92.9438,20.2188 Q92.3188,20.5469 91.8188,21.2969 Q91.3344,22.0469 91.3344,23.0781 L91.3344,24.1719 Q91.3344,25.4063 92.225,26.2344 Q93.1156,27.0469 94.7094,27.0469 Q95.6469,27.0469 96.3031,26.7969 Q96.6938,26.6406 97.1156,26.2031 Q97.3813,25.9375 97.5219,25.8594 Q97.6781,25.7813 97.8813,25.7813 Q98.2094,25.7813 98.4594,26.0469 Q98.725,26.2969 98.725,26.6406 Q98.725,26.9844 98.3813,27.3906 Q97.8813,27.9688 97.0844,28.2969 Q96.0063,28.75 94.7094,28.75 Q93.1938,28.75 91.9906,28.125 Q91.0063,27.625 90.3188,26.5625 Q89.6313,25.4844 89.6313,24.2031 L89.6313,23.0469 Q89.6313,21.7188 90.2406,20.5781 Q90.8656,19.4219 91.9594,18.8125 Q93.0531,18.1875 94.2875,18.1875 Q95.0219,18.1875 95.6625,18.3594 Q96.3188,18.5156 96.8656,18.875 Z " fill="#000000"/><text fill="#000000" font-family="sans-serif" font-size="14" lengthAdjust="spacing" textLength="57" x="110.9" y="28.7285">Message</text><line style="stroke:#A80036;stroke-width:1.0;" x1="67.5" x2="182.5" y1="39" y2="39"/><ellipse cx="77.5" cy="53.3047" fill="none" rx="3" ry="3" style="stroke:#038048;stroke-width:1.0;"/><text fill="#000000" font-family="sans-serif" font-size="14" lengthAdjust="spacing" textLength="91" x="86.5" y="57.5332">MessageId: int</text><ellipse cx="77.5" cy="70.9141" fill="none" rx="3" ry="3" style="stroke:#038048;stroke-width:1.0;"/><text fill="#000000" font-family="sans-serif" font-size="14" lengthAdjust="spacing" textLength="63" x="86.5" y="75.1426">UserId: int</text><ellipse cx="77.5" cy="88.5234" fill="none" rx="3" ry="3" style="stroke:#038048;stroke-width:1.0;"/><text fill="#000000" font-family="sans-serif" font-size="14" lengthAdjust="spacing" textLength="70" x="86.5" y="92.752">Text: string</text><ellipse cx="77.5" cy="106.1328" fill="none" rx="3" ry="3" style="stroke:#038048;stroke-width:1.0;"/><text fill="#000000" font-family="sans-serif" font-size="14" lengthAdjust="spacing" textLength="66" x="86.5" y="110.3613">User: User</text><line style="stroke:#A80036;stroke-width:1.0;" x1="67.5" x2="182.5" y1="117.4375" y2="117.4375"/></g><!--link Message to User--><g id="link_Message_User"><path codeLine="24" d="M125,131.28 C125,150.76 125,160.21 125,178.97 " fill="none" id="Message-User" style="stroke:#A80036;stroke-width:1.0;"/><polygon fill="#A80036" points="125,125.28,121,134.28,125,130.28,129,134.28,125,125.28" style="stroke:#A80036;stroke-width:1.0;"/><polygon fill="#A80036" points="125,184.97,129,175.97,125,179.97,121,175.97,125,184.97" style="stroke:#A80036;stroke-width:1.0;"/><text fill="#000000" font-family="sans-serif" font-size="13" lengthAdjust="spacing" textLength="20" x="103.7813" y="146.9696">0..*</text><text fill="#000000" font-family="sans-serif" font-size="13" lengthAdjust="spacing" textLength="7" x="117.5078" y="174.2711">1</text></g><!--SRC=[NOwz2i9048HhzocMD04bGIr3iB5AePK-m7bPaiFBRRZTGX7VNVCZ1BkT6UQRJSKQJxW7kRk0aOK0b7jKnXkhSeUrYsJLSG18MrSJMXUjfx7GcsWwz2wGFdj2ZjeoWFL61Az24LwmsenNLHVeWWxoR3egK3Iwq0pwH2Ac8IcmEhBtqrWvkmTu_u2pCp5diS3-hLpeeSkL8Iwcfxx4kOx9Di_N2PPPTi1abqpv1m00]--></g></svg>