<?xml version="1.0" encoding="us-ascii" standalone="no"?><svg xmlns="http://www.w3.org/2000/svg" xmlns:xlink="http://www.w3.org/1999/xlink" contentStyleType="text/css" height="270px" preserveAspectRatio="none" style="width:494px;height:270px;" version="1.1" viewBox="0 0 494 270" width="494px" zoomAndPan="magnify"><defs><filter height="300%" id="fyyykz6r8og2q" width="300%" x="-1" y="-1"><feGaussianBlur result="blurOut" stdDeviation="2.0"/><feColorMatrix in="blurOut" result="blurOut2" type="matrix" values="0 0 0 0 0 0 0 0 0 0 0 0 0 0 0 0 0 0 .4 0"/><feOffset dx="4.0" dy="4.0" in="blurOut2" result="blurOut3"/><feBlend in="SourceGraphic" in2="blurOut3" mode="normal"/></filter></defs><g><!--cluster repository--><g id="cluster_repository"><polygon fill="none" filter="url(#fyyykz6r8og2q)" points="16,6,124,6,131,29.6094,477,29.6094,477,261,16,261,16,6" style="stroke:#000000;stroke-width:1.5;"/><line style="stroke:#000000;stroke-width:1.5;" x1="16" x2="131" y1="29.6094" y2="29.6094"/><text fill="#000000" font-family="sans-serif" font-size="14" lengthAdjust="spacing" textLength="102" x="20" y="22.5332">Chat.Repository</text></g><!--class IMessageRepository--><g id="elem_IMessageRepository"><rect codeLine="11" fill="#FEFECE" filter="url(#fyyykz6r8og2q)" height="100.8281" id="IMessageRepository" style="stroke:#A80036;stroke-width:1.0;" width="429" x="32" y="42.5"/><ellipse cx="177.25" cy="58.5" fill="#B4A7E5" rx="11" ry="11" style="stroke:#A80036;stroke-width:1.0;"/><path d="M178.2031,55.1406 L178.2031,61.7969 L179.9219,61.7969 Q180.5313,61.7969 180.7969,62.0313 Q181.0625,62.2656 181.0625,62.6563 Q181.0625,63.0313 180.7969,63.2656 Q180.5313,63.5 179.9219,63.5 L174.7813,63.5 Q174.1719,63.5 173.9063,63.2656 Q173.6406,63.0313 173.6406,62.6406 Q173.6406,62.2656 173.9063,62.0313 Q174.1719,61.7969 174.7813,61.7969 L176.5,61.7969 L176.5,55.1406 L174.7813,55.1406 Q174.1719,55.1406 173.9063,54.9063 Q173.6406,54.6719 173.6406,54.2813 Q173.6406,53.9063 173.9063,53.6719 Q174.1719,53.4375 174.7813,53.4375 L179.9219,53.4375 Q180.5313,53.4375 180.7969,53.6719 Q181.0625,53.9063 181.0625,54.2813 Q181.0625,54.6719 180.7969,54.9063 Q180.5313,55.1406 179.9219,55.1406 L178.2031,55.1406 Z " fill="#000000"/><text fill="#000000" font-family="sans-serif" font-size="14" font-style="italic" lengthAdjust="spacing" textLength="130" x="197.75" y="64.2285">IMessageRepository</text><line style="stroke:#A80036;stroke-width:1.0;" x1="33" x2="460" y1="74.5" y2="74.5"/><line style="stroke:#A80036;stroke-width:1.0;" x1="33" x2="460" y1="82.5" y2="82.5"/><ellipse cx="43" cy="96.8047" fill="#84BE84" rx="3" ry="3" style="stroke:#038048;stroke-width:1.0;"/><text fill="#000000" font-family="sans-serif" font-size="14" lengthAdjust="spacing" textLength="334" x="52" y="101.0332">CreateMessage(newMessage : MessageDTO) : Task</text><ellipse cx="43" cy="114.4141" fill="#84BE84" rx="3" ry="3" style="stroke:#038048;stroke-width:1.0;"/><text fill="#000000" font-family="sans-serif" font-size="14" lengthAdjust="spacing" textLength="403" x="52" y="118.6426">ReadMessages(userName : string) : Task&lt;List&lt;MessageDTO&gt;&gt;</text><ellipse cx="43" cy="132.0234" fill="#84BE84" rx="3" ry="3" style="stroke:#038048;stroke-width:1.0;"/><text fill="#000000" font-family="sans-serif" font-size="14" lengthAdjust="spacing" textLength="355" x="52" y="136.252">UpdateMessage(alteredMessage : MessageDTO) : Task</text></g><!--class MessageRepository--><g id="elem_MessageRepository"><rect codeLine="18" fill="#FEFECE" filter="url(#fyyykz6r8og2q)" height="65.6094" id="MessageRepository" style="stroke:#A80036;stroke-width:1.0;" width="157" x="168" y="179"/><ellipse cx="183" cy="195" fill="#ADD1B2" rx="11" ry="11" style="stroke:#A80036;stroke-width:1.0;"/><path d="M185.7656,190.875 Q185.9219,190.6563 186.1094,190.5469 Q186.2969,190.4375 186.5156,190.4375 Q186.8906,190.4375 187.125,190.7031 Q187.3594,190.9531 187.3594,191.5625 L187.3594,193.0156 Q187.3594,193.625 187.125,193.8906 Q186.8906,194.1563 186.5156,194.1563 Q186.1719,194.1563 185.9688,193.9531 Q185.7656,193.7656 185.6563,193.25 Q185.6094,192.8906 185.4219,192.7031 Q185.0938,192.3281 184.4844,192.1094 Q183.875,191.8906 183.25,191.8906 Q182.4844,191.8906 181.8438,192.2188 Q181.2188,192.5469 180.7188,193.2969 Q180.2344,194.0469 180.2344,195.0781 L180.2344,196.1719 Q180.2344,197.4063 181.125,198.2344 Q182.0156,199.0469 183.6094,199.0469 Q184.5469,199.0469 185.2031,198.7969 Q185.5938,198.6406 186.0156,198.2031 Q186.2813,197.9375 186.4219,197.8594 Q186.5781,197.7813 186.7813,197.7813 Q187.1094,197.7813 187.3594,198.0469 Q187.625,198.2969 187.625,198.6406 Q187.625,198.9844 187.2813,199.3906 Q186.7813,199.9688 185.9844,200.2969 Q184.9063,200.75 183.6094,200.75 Q182.0938,200.75 180.8906,200.125 Q179.9063,199.625 179.2188,198.5625 Q178.5313,197.4844 178.5313,196.2031 L178.5313,195.0469 Q178.5313,193.7188 179.1406,192.5781 Q179.7656,191.4219 180.8594,190.8125 Q181.9531,190.1875 183.1875,190.1875 Q183.9219,190.1875 184.5625,190.3594 Q185.2188,190.5156 185.7656,190.875 Z " fill="#000000"/><text fill="#000000" font-family="sans-serif" font-size="14" lengthAdjust="spacing" textLength="125" x="197" y="200.7285">MessageRepository</text><line style="stroke:#A80036;stroke-width:1.0;" x1="169" x2="324" y1="211" y2="211"/><line style="stroke:#A80036;stroke-width:1.0;" x1="169" x2="324" y1="219" y2="219"/><text fill="#000000" font-family="sans-serif" font-size="14" lengthAdjust="spacing" textLength="12" x="174" y="237.5332">...</text></g><!--link MessageRepository to IMessageRepository--><g id="link_MessageRepository_IMessageRepository"><path codeLine="24" d="M247,178.85 C247,167.99 247,173.65 247,161.79 " fill="none" id="MessageRepository-to-IMessageRepository" style="stroke:#A80036;stroke-width:1.0;"/><polygon fill="none" points="247,143.79,241,161.79,253,161.79,247,143.79" style="stroke:#A80036;stroke-width:1.0;"/></g><!--SRC=[VP3BQiD034NNewyGsIIbs8ikI_0ctHJwW91-W6ehzc1xPf1KIaZpxxMDsmJws0XfxhdII4ijgMEy0MrzG8dA04kB2ItYQpIBFLPUk3GV0tIyjr4GNpTsyJwP4mdrsFd0TaYCKQo908dAbch6nQOXoxUSedgBSbWWASftYKS0vuEnxAbal7zarS5svi4TmRbht0YJyIol0h_FATxYdDtjdg-6QaVQJeujKpLBkdfJbYVgHrnDVAY_qFM3LrkVMnJ5P7v9rSKuweOFSlN_oDEmITcHAlwnH9PbGyppV6GTk1zOzb7yTW4umIS0]--></g></svg>