<?xml version="1.0" encoding="us-ascii" standalone="no"?><svg xmlns="http://www.w3.org/2000/svg" xmlns:xlink="http://www.w3.org/1999/xlink" contentStyleType="text/css" height="151px" preserveAspectRatio="none" style="width:482px;height:151px;" version="1.1" viewBox="0 0 482 151" width="482px" zoomAndPan="magnify"><defs><filter height="300%" id="f19d5jm1d7j9s8" width="300%" x="-1" y="-1"><feGaussianBlur result="blurOut" stdDeviation="2.0"/><feColorMatrix in="blurOut" result="blurOut2" type="matrix" values="0 0 0 0 0 0 0 0 0 0 0 0 0 0 0 0 0 0 .4 0"/><feOffset dx="4.0" dy="4.0" in="blurOut2" result="blurOut3"/><feBlend in="SourceGraphic" in2="blurOut3" mode="normal"/></filter></defs><g><!--cluster chirp--><g id="cluster_chirp"><polygon fill="none" filter="url(#f19d5jm1d7j9s8)" points="16,6,185,6,192,29.6094,465,29.6094,465,142,16,142,16,6" style="stroke:#000000;stroke-width:1.5;"/><line style="stroke:#000000;stroke-width:1.5;" x1="16" x2="192" y1="29.6094" y2="29.6094"/><text fill="#000000" font-family="sans-serif" font-size="14" lengthAdjust="spacing" textLength="163" x="20" y="22.5332">Chirp.Razor.Infrastructure</text></g><!--class Author--><g id="elem_Author"><rect codeLine="7" fill="#FEFECE" filter="url(#f19d5jm1d7j9s8)" height="83.2188" id="Author" style="stroke:#A80036;stroke-width:1.0;" width="90" x="32" y="42.5"/><ellipse cx="54.2" cy="58.5" fill="#ADD1B2" rx="11" ry="11" style="stroke:#A80036;stroke-width:1.0;"/><path d="M56.9656,54.375 Q57.1219,54.1563 57.3094,54.0469 Q57.4969,53.9375 57.7156,53.9375 Q58.0906,53.9375 58.325,54.2031 Q58.5594,54.4531 58.5594,55.0625 L58.5594,56.5156 Q58.5594,57.125 58.325,57.3906 Q58.0906,57.6563 57.7156,57.6563 Q57.3719,57.6563 57.1688,57.4531 Q56.9656,57.2656 56.8563,56.75 Q56.8094,56.3906 56.6219,56.2031 Q56.2938,55.8281 55.6844,55.6094 Q55.075,55.3906 54.45,55.3906 Q53.6844,55.3906 53.0438,55.7188 Q52.4188,56.0469 51.9188,56.7969 Q51.4344,57.5469 51.4344,58.5781 L51.4344,59.6719 Q51.4344,60.9063 52.325,61.7344 Q53.2156,62.5469 54.8094,62.5469 Q55.7469,62.5469 56.4031,62.2969 Q56.7938,62.1406 57.2156,61.7031 Q57.4813,61.4375 57.6219,61.3594 Q57.7781,61.2813 57.9813,61.2813 Q58.3094,61.2813 58.5594,61.5469 Q58.825,61.7969 58.825,62.1406 Q58.825,62.4844 58.4813,62.8906 Q57.9813,63.4688 57.1844,63.7969 Q56.1063,64.25 54.8094,64.25 Q53.2938,64.25 52.0906,63.625 Q51.1063,63.125 50.4188,62.0625 Q49.7313,60.9844 49.7313,59.7031 L49.7313,58.5469 Q49.7313,57.2188 50.3406,56.0781 Q50.9656,54.9219 52.0594,54.3125 Q53.1531,53.6875 54.3875,53.6875 Q55.1219,53.6875 55.7625,53.8594 Q56.4188,54.0156 56.9656,54.375 Z " fill="#000000"/><text fill="#000000" font-family="sans-serif" font-size="14" lengthAdjust="spacing" textLength="42" x="69.8" y="64.2285">Author</text><line style="stroke:#A80036;stroke-width:1.0;" x1="33" x2="121" y1="74.5" y2="74.5"/><text fill="#000000" font-family="sans-serif" font-size="14" lengthAdjust="spacing" textLength="78" x="38" y="93.0332">name: string</text><text fill="#000000" font-family="sans-serif" font-size="14" lengthAdjust="spacing" textLength="76" x="38" y="110.6426">email: string</text><line style="stroke:#A80036;stroke-width:1.0;" x1="33" x2="121" y1="117.7188" y2="117.7188"/></g><!--class Cheep--><g id="elem_Cheep"><rect codeLine="13" fill="#FEFECE" filter="url(#f19d5jm1d7j9s8)" height="83.2188" id="Cheep" style="stroke:#A80036;stroke-width:1.0;" width="145" x="304" y="42.5"/><ellipse cx="351.25" cy="58.5" fill="#ADD1B2" rx="11" ry="11" style="stroke:#A80036;stroke-width:1.0;"/><path d="M354.0156,54.375 Q354.1719,54.1563 354.3594,54.0469 Q354.5469,53.9375 354.7656,53.9375 Q355.1406,53.9375 355.375,54.2031 Q355.6094,54.4531 355.6094,55.0625 L355.6094,56.5156 Q355.6094,57.125 355.375,57.3906 Q355.1406,57.6563 354.7656,57.6563 Q354.4219,57.6563 354.2188,57.4531 Q354.0156,57.2656 353.9063,56.75 Q353.8594,56.3906 353.6719,56.2031 Q353.3438,55.8281 352.7344,55.6094 Q352.125,55.3906 351.5,55.3906 Q350.7344,55.3906 350.0938,55.7188 Q349.4688,56.0469 348.9688,56.7969 Q348.4844,57.5469 348.4844,58.5781 L348.4844,59.6719 Q348.4844,60.9063 349.375,61.7344 Q350.2656,62.5469 351.8594,62.5469 Q352.7969,62.5469 353.4531,62.2969 Q353.8438,62.1406 354.2656,61.7031 Q354.5313,61.4375 354.6719,61.3594 Q354.8281,61.2813 355.0313,61.2813 Q355.3594,61.2813 355.6094,61.5469 Q355.875,61.7969 355.875,62.1406 Q355.875,62.4844 355.5313,62.8906 Q355.0313,63.4688 354.2344,63.7969 Q353.1563,64.25 351.8594,64.25 Q350.3438,64.25 349.1406,63.625 Q348.1563,63.125 347.4688,62.0625 Q346.7813,60.9844 346.7813,59.7031 L346.7813,58.5469 Q346.7813,57.2188 347.3906,56.0781 Q348.0156,54.9219 349.1094,54.3125 Q350.2031,53.6875 351.4375,53.6875 Q352.1719,53.6875 352.8125,53.8594 Q353.4688,54.0156 354.0156,54.375 Z " fill="#000000"/><text fill="#000000" font-family="sans-serif" font-size="14" lengthAdjust="spacing" textLength="42" x="371.75" y="64.2285">Cheep</text><line style="stroke:#A80036;stroke-width:1.0;" x1="305" x2="448" y1="74.5" y2="74.5"/><text fill="#000000" font-family="sans-serif" font-size="14" lengthAdjust="spacing" textLength="65" x="310" y="93.0332">text: string</text><text fill="#000000" font-family="sans-serif" font-size="14" lengthAdjust="spacing" textLength="133" x="310" y="110.6426">timestamp: DateTime</text><line style="stroke:#A80036;stroke-width:1.0;" x1="305" x2="448" y1="117.7188" y2="117.7188"/></g><!--link Author to Cheep--><g id="link_Author_Cheep"><path codeLine="19" d="M122.22,84 C170.13,84 247.3,84 303.88,84 " fill="none" id="Author-Cheep" style="stroke:#A80036;stroke-width:1.0;"/><text fill="#000000" font-family="sans-serif" font-size="13" lengthAdjust="spacing" textLength="47" x="130.1658" y="98.4278">1 author</text><text fill="#000000" font-family="sans-serif" font-size="13" lengthAdjust="spacing" textLength="51" x="244.9017" y="98.1379">* cheeps</text></g><!--SRC=[TKyn2iCm3Dpz2k6nu43NR2LTkfP-GBXAR1BRGLQWjEJlTTDG0g6QJdVSdPHx7u5J9ZLGAo09s7TEuEwPhFWKbHhHzjWHwCPv7gihFXDNbzWoPk79oiIa0JFOZmmlfQ2C7J1dE4tY4XSEreaOg8RYyx7xaHJG3plMc0NEsxp64OsREA67x8pY0sN1CDPmHg5RMV-4hkVf8-22TD6D0Gs7yanfolhRgDIitW00]--></g></svg>