<?xml version="1.0" encoding="us-ascii" standalone="no"?><svg xmlns="http://www.w3.org/2000/svg" xmlns:xlink="http://www.w3.org/1999/xlink" contentStyleType="text/css" height="151px" preserveAspectRatio="none" style="width:696px;height:151px;" version="1.1" viewBox="0 0 696 151" width="696px" zoomAndPan="magnify"><defs><filter height="300%" id="fm0xs88359ets" width="300%" x="-1" y="-1"><feGaussianBlur result="blurOut" stdDeviation="2.0"/><feColorMatrix in="blurOut" result="blurOut2" type="matrix" values="0 0 0 0 0 0 0 0 0 0 0 0 0 0 0 0 0 0 .4 0"/><feOffset dx="4.0" dy="4.0" in="blurOut2" result="blurOut3"/><feBlend in="SourceGraphic" in2="blurOut3" mode="normal"/></filter></defs><g><!--cluster identity--><g id="cluster_identity"><polygon fill="none" filter="url(#fm0xs88359ets)" points="16,6,208,6,215,29.6094,218,29.6094,218,142,16,142,16,6" style="stroke:#000000;stroke-width:1.5;"/><line style="stroke:#000000;stroke-width:1.5;" x1="16" x2="215" y1="29.6094" y2="29.6094"/><text fill="#000000" font-family="sans-serif" font-size="14" lengthAdjust="spacing" textLength="186" x="20" y="22.5332">Microsoft.AspNetCore.Identity</text></g><!--cluster chirp--><g id="cluster_chirp"><polygon fill="none" filter="url(#fm0xs88359ets)" points="246,6,415,6,422,29.6094,679,29.6094,679,142,246,142,246,6" style="stroke:#000000;stroke-width:1.5;"/><line style="stroke:#000000;stroke-width:1.5;" x1="246" x2="422" y1="29.6094" y2="29.6094"/><text fill="#000000" font-family="sans-serif" font-size="14" lengthAdjust="spacing" textLength="163" x="250" y="22.5332">Chirp.Razor.Infrastructure</text></g><!--class IdentityUser--><g id="elem_IdentityUser"><rect codeLine="6" fill="#FEFECE" filter="url(#fm0xs88359ets)" height="83.2188" id="IdentityUser" style="stroke:#A80036;stroke-width:1.0;" width="106" x="64" y="42.5"/><ellipse cx="79" cy="58.5" fill="#ADD1B2" rx="11" ry="11" style="stroke:#A80036;stroke-width:1.0;"/><path d="M81.7656,54.375 Q81.9219,54.1563 82.1094,54.0469 Q82.2969,53.9375 82.5156,53.9375 Q82.8906,53.9375 83.125,54.2031 Q83.3594,54.4531 83.3594,55.0625 L83.3594,56.5156 Q83.3594,57.125 83.125,57.3906 Q82.8906,57.6563 82.5156,57.6563 Q82.1719,57.6563 81.9688,57.4531 Q81.7656,57.2656 81.6563,56.75 Q81.6094,56.3906 81.4219,56.2031 Q81.0938,55.8281 80.4844,55.6094 Q79.875,55.3906 79.25,55.3906 Q78.4844,55.3906 77.8438,55.7188 Q77.2188,56.0469 76.7188,56.7969 Q76.2344,57.5469 76.2344,58.5781 L76.2344,59.6719 Q76.2344,60.9063 77.125,61.7344 Q78.0156,62.5469 79.6094,62.5469 Q80.5469,62.5469 81.2031,62.2969 Q81.5938,62.1406 82.0156,61.7031 Q82.2813,61.4375 82.4219,61.3594 Q82.5781,61.2813 82.7813,61.2813 Q83.1094,61.2813 83.3594,61.5469 Q83.625,61.7969 83.625,62.1406 Q83.625,62.4844 83.2813,62.8906 Q82.7813,63.4688 81.9844,63.7969 Q80.9063,64.25 79.6094,64.25 Q78.0938,64.25 76.8906,63.625 Q75.9063,63.125 75.2188,62.0625 Q74.5313,60.9844 74.5313,59.7031 L74.5313,58.5469 Q74.5313,57.2188 75.1406,56.0781 Q75.7656,54.9219 76.8594,54.3125 Q77.9531,53.6875 79.1875,53.6875 Q79.9219,53.6875 80.5625,53.8594 Q81.2188,54.0156 81.7656,54.375 Z " fill="#000000"/><text fill="#000000" font-family="sans-serif" font-size="14" lengthAdjust="spacing" textLength="74" x="93" y="64.2285">IdentityUser</text><line style="stroke:#A80036;stroke-width:1.0;" x1="65" x2="169" y1="74.5" y2="74.5"/><text fill="#000000" font-family="sans-serif" font-size="14" lengthAdjust="spacing" textLength="78" x="70" y="93.0332">name: string</text><text fill="#000000" font-family="sans-serif" font-size="14" lengthAdjust="spacing" textLength="76" x="70" y="110.6426">email: string</text><line style="stroke:#A80036;stroke-width:1.0;" x1="65" x2="169" y1="117.7188" y2="117.7188"/></g><!--class Author--><g id="elem_Author"><rect codeLine="17" fill="#FEFECE" filter="url(#fm0xs88359ets)" height="48" id="Author" style="stroke:#A80036;stroke-width:1.0;" width="74" x="262" y="60"/><ellipse cx="277" cy="76" fill="#ADD1B2" rx="11" ry="11" style="stroke:#A80036;stroke-width:1.0;"/><path d="M279.7656,71.875 Q279.9219,71.6563 280.1094,71.5469 Q280.2969,71.4375 280.5156,71.4375 Q280.8906,71.4375 281.125,71.7031 Q281.3594,71.9531 281.3594,72.5625 L281.3594,74.0156 Q281.3594,74.625 281.125,74.8906 Q280.8906,75.1563 280.5156,75.1563 Q280.1719,75.1563 279.9688,74.9531 Q279.7656,74.7656 279.6563,74.25 Q279.6094,73.8906 279.4219,73.7031 Q279.0938,73.3281 278.4844,73.1094 Q277.875,72.8906 277.25,72.8906 Q276.4844,72.8906 275.8438,73.2188 Q275.2188,73.5469 274.7188,74.2969 Q274.2344,75.0469 274.2344,76.0781 L274.2344,77.1719 Q274.2344,78.4063 275.125,79.2344 Q276.0156,80.0469 277.6094,80.0469 Q278.5469,80.0469 279.2031,79.7969 Q279.5938,79.6406 280.0156,79.2031 Q280.2813,78.9375 280.4219,78.8594 Q280.5781,78.7813 280.7813,78.7813 Q281.1094,78.7813 281.3594,79.0469 Q281.625,79.2969 281.625,79.6406 Q281.625,79.9844 281.2813,80.3906 Q280.7813,80.9688 279.9844,81.2969 Q278.9063,81.75 277.6094,81.75 Q276.0938,81.75 274.8906,81.125 Q273.9063,80.625 273.2188,79.5625 Q272.5313,78.4844 272.5313,77.2031 L272.5313,76.0469 Q272.5313,74.7188 273.1406,73.5781 Q273.7656,72.4219 274.8594,71.8125 Q275.9531,71.1875 277.1875,71.1875 Q277.9219,71.1875 278.5625,71.3594 Q279.2188,71.5156 279.7656,71.875 Z " fill="#000000"/><text fill="#000000" font-family="sans-serif" font-size="14" lengthAdjust="spacing" textLength="42" x="291" y="81.7285">Author</text><line style="stroke:#A80036;stroke-width:1.0;" x1="263" x2="335" y1="92" y2="92"/><line style="stroke:#A80036;stroke-width:1.0;" x1="263" x2="335" y1="100" y2="100"/></g><!--class Cheep--><g id="elem_Cheep"><rect codeLine="21" fill="#FEFECE" filter="url(#fm0xs88359ets)" height="83.2188" id="Cheep" style="stroke:#A80036;stroke-width:1.0;" width="145" x="518" y="42.5"/><ellipse cx="565.25" cy="58.5" fill="#ADD1B2" rx="11" ry="11" style="stroke:#A80036;stroke-width:1.0;"/><path d="M568.0156,54.375 Q568.1719,54.1563 568.3594,54.0469 Q568.5469,53.9375 568.7656,53.9375 Q569.1406,53.9375 569.375,54.2031 Q569.6094,54.4531 569.6094,55.0625 L569.6094,56.5156 Q569.6094,57.125 569.375,57.3906 Q569.1406,57.6563 568.7656,57.6563 Q568.4219,57.6563 568.2188,57.4531 Q568.0156,57.2656 567.9063,56.75 Q567.8594,56.3906 567.6719,56.2031 Q567.3438,55.8281 566.7344,55.6094 Q566.125,55.3906 565.5,55.3906 Q564.7344,55.3906 564.0938,55.7188 Q563.4688,56.0469 562.9688,56.7969 Q562.4844,57.5469 562.4844,58.5781 L562.4844,59.6719 Q562.4844,60.9063 563.375,61.7344 Q564.2656,62.5469 565.8594,62.5469 Q566.7969,62.5469 567.4531,62.2969 Q567.8438,62.1406 568.2656,61.7031 Q568.5313,61.4375 568.6719,61.3594 Q568.8281,61.2813 569.0313,61.2813 Q569.3594,61.2813 569.6094,61.5469 Q569.875,61.7969 569.875,62.1406 Q569.875,62.4844 569.5313,62.8906 Q569.0313,63.4688 568.2344,63.7969 Q567.1563,64.25 565.8594,64.25 Q564.3438,64.25 563.1406,63.625 Q562.1563,63.125 561.4688,62.0625 Q560.7813,60.9844 560.7813,59.7031 L560.7813,58.5469 Q560.7813,57.2188 561.3906,56.0781 Q562.0156,54.9219 563.1094,54.3125 Q564.2031,53.6875 565.4375,53.6875 Q566.1719,53.6875 566.8125,53.8594 Q567.4688,54.0156 568.0156,54.375 Z " fill="#000000"/><text fill="#000000" font-family="sans-serif" font-size="14" lengthAdjust="spacing" textLength="42" x="585.75" y="64.2285">Cheep</text><line style="stroke:#A80036;stroke-width:1.0;" x1="519" x2="662" y1="74.5" y2="74.5"/><text fill="#000000" font-family="sans-serif" font-size="14" lengthAdjust="spacing" textLength="65" x="524" y="93.0332">text: string</text><text fill="#000000" font-family="sans-serif" font-size="14" lengthAdjust="spacing" textLength="133" x="524" y="110.6426">timestamp: DateTime</text><line style="stroke:#A80036;stroke-width:1.0;" x1="519" x2="662" y1="117.7188" y2="117.7188"/></g><!--reverse link IdentityUser to Author--><g id="link_IdentityUser_Author"><path codeLine="15" d="M188.06,84 C217.45,84 235.43,84 261.75,84 " fill="none" id="IdentityUser-backto-Author" style="stroke:#A80036;stroke-width:1.0;"/><polygon fill="none" points="170.06,84,188.06,90,188.06,78,170.06,84" style="stroke:#A80036;stroke-width:1.0;"/></g><!--link Author to Cheep--><g id="link_Author_Cheep"><path codeLine="27" d="M336.08,84 C381.4,84 460.21,84 517.95,84 " fill="none" id="Author-Cheep" style="stroke:#A80036;stroke-width:1.0;"/><text fill="#000000" font-family="sans-serif" font-size="13" lengthAdjust="spacing" textLength="47" x="343.8418" y="98.5426">1 author</text><text fill="#000000" font-family="sans-serif" font-size="13" lengthAdjust="spacing" textLength="51" x="458.9773" y="98.1379">* cheeps</text></g><!--SRC=[TO_1JiCm38RlUGehHwHKuhe3qbGkEy1XOWzWPMvhhKqYnvKOi7SdAm4w8NoA_N_n_pkVE834J6QaJa4Z2FU3mf65l78CnYJq9-m9x1FxGiPEcsrEpwHj56fsHmhAUhQ06RWsy6wWb1ynP_Wc3fca2jSAED46iWg7_cT84_9uCxsOYrbbQ0UMrEpnBKgp2vrWGMUliz0Im5_bOh9ytSuwH04t9_VnS1F3hE9LwZUOSzLu1RK3KLenIg_w9xpoH5bnIXjuHAMNqlwpj7hQUy3bPOlk75YuAnSKfso_7Cljdm00]--></g></svg>