<?xml version="1.0" encoding="us-ascii" standalone="no"?><svg xmlns="http://www.w3.org/2000/svg" xmlns:xlink="http://www.w3.org/1999/xlink" contentStyleType="text/css" height="792px" preserveAspectRatio="none" style="width:827px;height:792px;background:#FFFFFF;" version="1.1" viewBox="0 0 827 792" width="827px" zoomAndPan="magnify"><defs><filter height="300%" id="f160l56v06l5c0" width="300%" x="-1" y="-1"><feGaussianBlur result="blurOut" stdDeviation="2.0"/><feColorMatrix in="blurOut" result="blurOut2" type="matrix" values="0 0 0 0 0 0 0 0 0 0 0 0 0 0 0 0 0 0 .4 0"/><feOffset dx="4.0" dy="4.0" in="blurOut2" result="blurOut3"/><feBlend in="SourceGraphic" in2="blurOut3" mode="normal"/></filter></defs><g><!--cluster core--><g id="cluster_core"><polygon fill="none" filter="url(#f160l56v06l5c0)" points="16,50,91,50,98,73.6094,231,73.6094,231,168,16,168,16,50" style="stroke:#000000;stroke-width:1.5;"/><line style="stroke:#000000;stroke-width:1.5;" x1="16" x2="98" y1="73.6094" y2="73.6094"/><text fill="#000000" font-family="sans-serif" font-size="14" lengthAdjust="spacing" textLength="69" x="20" y="66.5332">Chirp.Core</text></g><!--cluster infrastructure--><g id="cluster_infrastructure"><polygon fill="none" filter="url(#f160l56v06l5c0)" points="396,6,524,6,531,29.6094,810,29.6094,810,318,396,318,396,6" style="stroke:#000000;stroke-width:1.5;"/><line style="stroke:#000000;stroke-width:1.5;" x1="396" x2="531" y1="29.6094" y2="29.6094"/><text fill="#000000" font-family="sans-serif" font-size="14" lengthAdjust="spacing" textLength="122" x="400" y="22.5332">Chirp.Infrastructure</text></g><!--cluster repositories--><g id="cluster_repositories"><polygon fill="none" filter="url(#f160l56v06l5c0)" points="608,50,731,50,738,73.6094,786,73.6094,786,294,608,294,608,50" style="stroke:#000000;stroke-width:1.5;"/><line style="stroke:#000000;stroke-width:1.5;" x1="608" x2="738" y1="73.6094" y2="73.6094"/><text fill="#000000" font-family="sans-serif" font-size="14" lengthAdjust="spacing" textLength="117" x="612" y="66.5332">Chirp.Repositories</text></g><!--cluster services--><g id="cluster_services"><polygon fill="none" filter="url(#f160l56v06l5c0)" points="420,50,518,50,525,73.6094,584,73.6094,584,294,420,294,420,50" style="stroke:#000000;stroke-width:1.5;"/><line style="stroke:#000000;stroke-width:1.5;" x1="420" x2="525" y1="73.6094" y2="73.6094"/><text fill="#000000" font-family="sans-serif" font-size="14" lengthAdjust="spacing" textLength="92" x="424" y="66.5332">Chirp.Services</text></g><!--cluster web--><g id="cluster_web"><polygon fill="none" filter="url(#f160l56v06l5c0)" points="305,546,378,546,385,569.6094,692,569.6094,692,783,305,783,305,546" style="stroke:#000000;stroke-width:1.5;"/><line style="stroke:#000000;stroke-width:1.5;" x1="305" x2="385" y1="569.6094" y2="569.6094"/><text fill="#000000" font-family="sans-serif" font-size="14" lengthAdjust="spacing" textLength="67" x="309" y="562.5332">Chirp.Web</text></g><!--class Cheep--><g id="elem_Cheep"><rect codeLine="11" fill="#FEFECE" filter="url(#f160l56v06l5c0)" height="65.6094" id="Cheep" style="stroke:#A80036;stroke-width:1.0;" width="74" x="32" y="86"/><ellipse cx="47" cy="102" fill="#ADD1B2" rx="11" ry="11" style="stroke:#A80036;stroke-width:1.0;"/><path d="M49.7656,97.875 Q49.9219,97.6563 50.1094,97.5469 Q50.2969,97.4375 50.5156,97.4375 Q50.8906,97.4375 51.125,97.7031 Q51.3594,97.9531 51.3594,98.5625 L51.3594,100.0156 Q51.3594,100.625 51.125,100.8906 Q50.8906,101.1563 50.5156,101.1563 Q50.1719,101.1563 49.9688,100.9531 Q49.7656,100.7656 49.6563,100.25 Q49.6094,99.8906 49.4219,99.7031 Q49.0938,99.3281 48.4844,99.1094 Q47.875,98.8906 47.25,98.8906 Q46.4844,98.8906 45.8438,99.2188 Q45.2188,99.5469 44.7188,100.2969 Q44.2344,101.0469 44.2344,102.0781 L44.2344,103.1719 Q44.2344,104.4063 45.125,105.2344 Q46.0156,106.0469 47.6094,106.0469 Q48.5469,106.0469 49.2031,105.7969 Q49.5938,105.6406 50.0156,105.2031 Q50.2813,104.9375 50.4219,104.8594 Q50.5781,104.7813 50.7813,104.7813 Q51.1094,104.7813 51.3594,105.0469 Q51.625,105.2969 51.625,105.6406 Q51.625,105.9844 51.2813,106.3906 Q50.7813,106.9688 49.9844,107.2969 Q48.9063,107.75 47.6094,107.75 Q46.0938,107.75 44.8906,107.125 Q43.9063,106.625 43.2188,105.5625 Q42.5313,104.4844 42.5313,103.2031 L42.5313,102.0469 Q42.5313,100.7188 43.1406,99.5781 Q43.7656,98.4219 44.8594,97.8125 Q45.9531,97.1875 47.1875,97.1875 Q47.9219,97.1875 48.5625,97.3594 Q49.2188,97.5156 49.7656,97.875 Z " fill="#000000"/><text fill="#000000" font-family="sans-serif" font-size="14" lengthAdjust="spacing" textLength="42" x="61" y="107.7285">Cheep</text><line style="stroke:#A80036;stroke-width:1.0;" x1="33" x2="105" y1="118" y2="118"/><text fill="#000000" font-family="sans-serif" font-size="14" lengthAdjust="spacing" textLength="12" x="38" y="136.5332">...</text><line style="stroke:#A80036;stroke-width:1.0;" x1="33" x2="105" y1="143.6094" y2="143.6094"/></g><!--class Author--><g id="elem_Author"><rect codeLine="16" fill="#FEFECE" filter="url(#f160l56v06l5c0)" height="65.6094" id="Author" style="stroke:#A80036;stroke-width:1.0;" width="74" x="141" y="86"/><ellipse cx="156" cy="102" fill="#ADD1B2" rx="11" ry="11" style="stroke:#A80036;stroke-width:1.0;"/><path d="M158.7656,97.875 Q158.9219,97.6563 159.1094,97.5469 Q159.2969,97.4375 159.5156,97.4375 Q159.8906,97.4375 160.125,97.7031 Q160.3594,97.9531 160.3594,98.5625 L160.3594,100.0156 Q160.3594,100.625 160.125,100.8906 Q159.8906,101.1563 159.5156,101.1563 Q159.1719,101.1563 158.9688,100.9531 Q158.7656,100.7656 158.6563,100.25 Q158.6094,99.8906 158.4219,99.7031 Q158.0938,99.3281 157.4844,99.1094 Q156.875,98.8906 156.25,98.8906 Q155.4844,98.8906 154.8438,99.2188 Q154.2188,99.5469 153.7188,100.2969 Q153.2344,101.0469 153.2344,102.0781 L153.2344,103.1719 Q153.2344,104.4063 154.125,105.2344 Q155.0156,106.0469 156.6094,106.0469 Q157.5469,106.0469 158.2031,105.7969 Q158.5938,105.6406 159.0156,105.2031 Q159.2813,104.9375 159.4219,104.8594 Q159.5781,104.7813 159.7813,104.7813 Q160.1094,104.7813 160.3594,105.0469 Q160.625,105.2969 160.625,105.6406 Q160.625,105.9844 160.2813,106.3906 Q159.7813,106.9688 158.9844,107.2969 Q157.9063,107.75 156.6094,107.75 Q155.0938,107.75 153.8906,107.125 Q152.9063,106.625 152.2188,105.5625 Q151.5313,104.4844 151.5313,103.2031 L151.5313,102.0469 Q151.5313,100.7188 152.1406,99.5781 Q152.7656,98.4219 153.8594,97.8125 Q154.9531,97.1875 156.1875,97.1875 Q156.9219,97.1875 157.5625,97.3594 Q158.2188,97.5156 158.7656,97.875 Z " fill="#000000"/><text fill="#000000" font-family="sans-serif" font-size="14" lengthAdjust="spacing" textLength="42" x="170" y="107.7285">Author</text><line style="stroke:#A80036;stroke-width:1.0;" x1="142" x2="214" y1="118" y2="118"/><text fill="#000000" font-family="sans-serif" font-size="14" lengthAdjust="spacing" textLength="12" x="147" y="136.5332">...</text><line style="stroke:#A80036;stroke-width:1.0;" x1="142" x2="214" y1="143.6094" y2="143.6094"/></g><!--class ICheepRepository--><g id="elem_ICheepRepository"><rect codeLine="29" fill="#FEFECE" filter="url(#f160l56v06l5c0)" height="65.6094" id="ICheepRepository" style="stroke:#A80036;stroke-width:1.0;" width="146" x="624" y="86"/><ellipse cx="639" cy="102" fill="#B4A7E5" rx="11" ry="11" style="stroke:#A80036;stroke-width:1.0;"/><path d="M639.9531,98.6406 L639.9531,105.2969 L641.6719,105.2969 Q642.2813,105.2969 642.5469,105.5313 Q642.8125,105.7656 642.8125,106.1563 Q642.8125,106.5313 642.5469,106.7656 Q642.2813,107 641.6719,107 L636.5313,107 Q635.9219,107 635.6563,106.7656 Q635.3906,106.5313 635.3906,106.1406 Q635.3906,105.7656 635.6563,105.5313 Q635.9219,105.2969 636.5313,105.2969 L638.25,105.2969 L638.25,98.6406 L636.5313,98.6406 Q635.9219,98.6406 635.6563,98.4063 Q635.3906,98.1719 635.3906,97.7813 Q635.3906,97.4063 635.6563,97.1719 Q635.9219,96.9375 636.5313,96.9375 L641.6719,96.9375 Q642.2813,96.9375 642.5469,97.1719 Q642.8125,97.4063 642.8125,97.7813 Q642.8125,98.1719 642.5469,98.4063 Q642.2813,98.6406 641.6719,98.6406 L639.9531,98.6406 Z " fill="#000000"/><text fill="#000000" font-family="sans-serif" font-size="14" font-style="italic" lengthAdjust="spacing" textLength="114" x="653" y="107.7285">ICheepRepository</text><line style="stroke:#A80036;stroke-width:1.0;" x1="625" x2="769" y1="118" y2="118"/><text fill="#000000" font-family="sans-serif" font-size="14" lengthAdjust="spacing" textLength="12" x="630" y="136.5332">...</text><line style="stroke:#A80036;stroke-width:1.0;" x1="625" x2="769" y1="143.6094" y2="143.6094"/></g><!--class CheepRepository--><g id="elem_CheepRepository"><rect codeLine="34" fill="#FEFECE" filter="url(#f160l56v06l5c0)" height="65.6094" id="CheepRepository" style="stroke:#A80036;stroke-width:1.0;" width="142" x="626" y="212"/><ellipse cx="641" cy="228" fill="#ADD1B2" rx="11" ry="11" style="stroke:#A80036;stroke-width:1.0;"/><path d="M643.7656,223.875 Q643.9219,223.6563 644.1094,223.5469 Q644.2969,223.4375 644.5156,223.4375 Q644.8906,223.4375 645.125,223.7031 Q645.3594,223.9531 645.3594,224.5625 L645.3594,226.0156 Q645.3594,226.625 645.125,226.8906 Q644.8906,227.1563 644.5156,227.1563 Q644.1719,227.1563 643.9688,226.9531 Q643.7656,226.7656 643.6563,226.25 Q643.6094,225.8906 643.4219,225.7031 Q643.0938,225.3281 642.4844,225.1094 Q641.875,224.8906 641.25,224.8906 Q640.4844,224.8906 639.8438,225.2188 Q639.2188,225.5469 638.7188,226.2969 Q638.2344,227.0469 638.2344,228.0781 L638.2344,229.1719 Q638.2344,230.4063 639.125,231.2344 Q640.0156,232.0469 641.6094,232.0469 Q642.5469,232.0469 643.2031,231.7969 Q643.5938,231.6406 644.0156,231.2031 Q644.2813,230.9375 644.4219,230.8594 Q644.5781,230.7813 644.7813,230.7813 Q645.1094,230.7813 645.3594,231.0469 Q645.625,231.2969 645.625,231.6406 Q645.625,231.9844 645.2813,232.3906 Q644.7813,232.9688 643.9844,233.2969 Q642.9063,233.75 641.6094,233.75 Q640.0938,233.75 638.8906,233.125 Q637.9063,232.625 637.2188,231.5625 Q636.5313,230.4844 636.5313,229.2031 L636.5313,228.0469 Q636.5313,226.7188 637.1406,225.5781 Q637.7656,224.4219 638.8594,223.8125 Q639.9531,223.1875 641.1875,223.1875 Q641.9219,223.1875 642.5625,223.3594 Q643.2188,223.5156 643.7656,223.875 Z " fill="#000000"/><text fill="#000000" font-family="sans-serif" font-size="14" lengthAdjust="spacing" textLength="110" x="655" y="233.7285">CheepRepository</text><line style="stroke:#A80036;stroke-width:1.0;" x1="627" x2="767" y1="244" y2="244"/><text fill="#000000" font-family="sans-serif" font-size="14" lengthAdjust="spacing" textLength="12" x="632" y="262.5332">...</text><line style="stroke:#A80036;stroke-width:1.0;" x1="627" x2="767" y1="269.6094" y2="269.6094"/></g><!--class ICheepServices--><g id="elem_ICheepServices"><rect codeLine="45" fill="#FEFECE" filter="url(#f160l56v06l5c0)" height="65.6094" id="ICheepServices" style="stroke:#A80036;stroke-width:1.0;" width="131" x="436.5" y="86"/><ellipse cx="451.5" cy="102" fill="#B4A7E5" rx="11" ry="11" style="stroke:#A80036;stroke-width:1.0;"/><path d="M452.4531,98.6406 L452.4531,105.2969 L454.1719,105.2969 Q454.7813,105.2969 455.0469,105.5313 Q455.3125,105.7656 455.3125,106.1563 Q455.3125,106.5313 455.0469,106.7656 Q454.7813,107 454.1719,107 L449.0313,107 Q448.4219,107 448.1563,106.7656 Q447.8906,106.5313 447.8906,106.1406 Q447.8906,105.7656 448.1563,105.5313 Q448.4219,105.2969 449.0313,105.2969 L450.75,105.2969 L450.75,98.6406 L449.0313,98.6406 Q448.4219,98.6406 448.1563,98.4063 Q447.8906,98.1719 447.8906,97.7813 Q447.8906,97.4063 448.1563,97.1719 Q448.4219,96.9375 449.0313,96.9375 L454.1719,96.9375 Q454.7813,96.9375 455.0469,97.1719 Q455.3125,97.4063 455.3125,97.7813 Q455.3125,98.1719 455.0469,98.4063 Q454.7813,98.6406 454.1719,98.6406 L452.4531,98.6406 Z " fill="#000000"/><text fill="#000000" font-family="sans-serif" font-size="14" font-style="italic" lengthAdjust="spacing" textLength="99" x="465.5" y="107.7285">ICheepServices</text><line style="stroke:#A80036;stroke-width:1.0;" x1="437.5" x2="566.5" y1="118" y2="118"/><text fill="#000000" font-family="sans-serif" font-size="14" lengthAdjust="spacing" textLength="12" x="442.5" y="136.5332">...</text><line style="stroke:#A80036;stroke-width:1.0;" x1="437.5" x2="566.5" y1="143.6094" y2="143.6094"/></g><!--class CheepServices--><g id="elem_CheepServices"><rect codeLine="50" fill="#FEFECE" filter="url(#f160l56v06l5c0)" height="65.6094" id="CheepServices" style="stroke:#A80036;stroke-width:1.0;" width="128" x="438" y="212"/><ellipse cx="453" cy="228" fill="#ADD1B2" rx="11" ry="11" style="stroke:#A80036;stroke-width:1.0;"/><path d="M455.7656,223.875 Q455.9219,223.6563 456.1094,223.5469 Q456.2969,223.4375 456.5156,223.4375 Q456.8906,223.4375 457.125,223.7031 Q457.3594,223.9531 457.3594,224.5625 L457.3594,226.0156 Q457.3594,226.625 457.125,226.8906 Q456.8906,227.1563 456.5156,227.1563 Q456.1719,227.1563 455.9688,226.9531 Q455.7656,226.7656 455.6563,226.25 Q455.6094,225.8906 455.4219,225.7031 Q455.0938,225.3281 454.4844,225.1094 Q453.875,224.8906 453.25,224.8906 Q452.4844,224.8906 451.8438,225.2188 Q451.2188,225.5469 450.7188,226.2969 Q450.2344,227.0469 450.2344,228.0781 L450.2344,229.1719 Q450.2344,230.4063 451.125,231.2344 Q452.0156,232.0469 453.6094,232.0469 Q454.5469,232.0469 455.2031,231.7969 Q455.5938,231.6406 456.0156,231.2031 Q456.2813,230.9375 456.4219,230.8594 Q456.5781,230.7813 456.7813,230.7813 Q457.1094,230.7813 457.3594,231.0469 Q457.625,231.2969 457.625,231.6406 Q457.625,231.9844 457.2813,232.3906 Q456.7813,232.9688 455.9844,233.2969 Q454.9063,233.75 453.6094,233.75 Q452.0938,233.75 450.8906,233.125 Q449.9063,232.625 449.2188,231.5625 Q448.5313,230.4844 448.5313,229.2031 L448.5313,228.0469 Q448.5313,226.7188 449.1406,225.5781 Q449.7656,224.4219 450.8594,223.8125 Q451.9531,223.1875 453.1875,223.1875 Q453.9219,223.1875 454.5625,223.3594 Q455.2188,223.5156 455.7656,223.875 Z " fill="#000000"/><text fill="#000000" font-family="sans-serif" font-size="14" lengthAdjust="spacing" textLength="96" x="467" y="233.7285">CheepServices</text><line style="stroke:#A80036;stroke-width:1.0;" x1="439" x2="565" y1="244" y2="244"/><text fill="#000000" font-family="sans-serif" font-size="14" lengthAdjust="spacing" textLength="12" x="444" y="262.5332">...</text><line style="stroke:#A80036;stroke-width:1.0;" x1="439" x2="565" y1="269.6094" y2="269.6094"/></g><!--class Program--><g id="elem_Program"><rect codeLine="63" fill="#FEFECE" filter="url(#f160l56v06l5c0)" height="65.6094" id="Program" style="stroke:#A80036;stroke-width:1.0;" width="145" x="522.5" y="590"/><ellipse cx="564.05" cy="606" fill="#ADD1B2" rx="11" ry="11" style="stroke:#A80036;stroke-width:1.0;"/><path d="M566.8156,601.875 Q566.9719,601.6563 567.1594,601.5469 Q567.3469,601.4375 567.5656,601.4375 Q567.9406,601.4375 568.175,601.7031 Q568.4094,601.9531 568.4094,602.5625 L568.4094,604.0156 Q568.4094,604.625 568.175,604.8906 Q567.9406,605.1563 567.5656,605.1563 Q567.2219,605.1563 567.0188,604.9531 Q566.8156,604.7656 566.7063,604.25 Q566.6594,603.8906 566.4719,603.7031 Q566.1438,603.3281 565.5344,603.1094 Q564.925,602.8906 564.3,602.8906 Q563.5344,602.8906 562.8938,603.2188 Q562.2688,603.5469 561.7688,604.2969 Q561.2844,605.0469 561.2844,606.0781 L561.2844,607.1719 Q561.2844,608.4063 562.175,609.2344 Q563.0656,610.0469 564.6594,610.0469 Q565.5969,610.0469 566.2531,609.7969 Q566.6438,609.6406 567.0656,609.2031 Q567.3313,608.9375 567.4719,608.8594 Q567.6281,608.7813 567.8313,608.7813 Q568.1594,608.7813 568.4094,609.0469 Q568.675,609.2969 568.675,609.6406 Q568.675,609.9844 568.3313,610.3906 Q567.8313,610.9688 567.0344,611.2969 Q565.9563,611.75 564.6594,611.75 Q563.1438,611.75 561.9406,611.125 Q560.9563,610.625 560.2688,609.5625 Q559.5813,608.4844 559.5813,607.2031 L559.5813,606.0469 Q559.5813,604.7188 560.1906,603.5781 Q560.8156,602.4219 561.9094,601.8125 Q563.0031,601.1875 564.2375,601.1875 Q564.9719,601.1875 565.6125,601.3594 Q566.2688,601.5156 566.8156,601.875 Z " fill="#000000"/><text fill="#000000" font-family="sans-serif" font-size="14" lengthAdjust="spacing" textLength="54" x="583.95" y="611.7285">Program</text><line style="stroke:#A80036;stroke-width:1.0;" x1="523.5" x2="666.5" y1="622" y2="622"/><line style="stroke:#A80036;stroke-width:1.0;" x1="523.5" x2="666.5" y1="630" y2="630"/><ellipse cx="533.5" cy="644.3047" fill="#84BE84" rx="3" ry="3" style="stroke:#038048;stroke-width:1.0;"/><text fill="#000000" font-family="sans-serif" font-size="14" lengthAdjust="spacing" textLength="119" x="542.5" y="648.5332">Main(args: string[])</text></g><g id="elem_GMN20"><path d="M348,716 L348,758.7031 A0,0 0 0 0 348,758.7031 L570,758.7031 A0,0 0 0 0 570,758.7031 L570,726 L560,716 L422,716 L418,650.72 L414,716 L348,716 A0,0 0 0 0 348,716 " fill="#FBFB77" filter="url(#f160l56v06l5c0)" style="stroke:#A80036;stroke-width:1.0;"/><path d="M560,716 L560,726 L570,726 L560,716 " fill="#FBFB77" style="stroke:#A80036;stroke-width:1.0;"/><text fill="#000000" font-family="sans-serif" font-size="13" lengthAdjust="spacing" textLength="183" x="354" y="734.4951">Contains Razor pages (.cshtml)</text><text fill="#000000" font-family="sans-serif" font-size="13" lengthAdjust="spacing" textLength="201" x="354" y="750.8467">and their page models (.cshtml.cs)</text></g><polygon fill="#FEFECE" filter="url(#f160l56v06l5c0)" points="348.5,595.5,473.5,595.5,480.5,619.1094,487.5,619.1094,487.5,650.7188,348.5,650.7188,348.5,595.5" style="stroke:#A80036;stroke-width:1.0;"/><line style="stroke:#A80036;stroke-width:1.0;" x1="348.5" x2="480.5" y1="619.1094" y2="619.1094"/><text fill="#000000" font-family="sans-serif" font-size="14" lengthAdjust="spacing" textLength="119" x="352.5" y="612.0332">Chirp.Razor.Pages</text><polygon fill="#FEFECE" filter="url(#f160l56v06l5c0)" points="246,217.5,366,217.5,373,241.1094,380,241.1094,380,272.7188,246,272.7188,246,217.5" style="stroke:#A80036;stroke-width:1.0;"/><line style="stroke:#A80036;stroke-width:1.0;" x1="246" x2="373" y1="241.1094" y2="241.1094"/><text fill="#000000" font-family="sans-serif" font-size="14" lengthAdjust="spacing" textLength="114" x="250" y="234.0332">Chirp.Razor.Tests</text><g id="elem_GMN24"><path d="M250.5,106 L250.5,132.3516 A0,0 0 0 0 250.5,132.3516 L309,132.3516 L313,217.49 L317,132.3516 L375.5,132.3516 A0,0 0 0 0 375.5,132.3516 L375.5,116 L365.5,106 L250.5,106 A0,0 0 0 0 250.5,106 " fill="#FBFB77" filter="url(#f160l56v06l5c0)" style="stroke:#A80036;stroke-width:1.0;"/><path d="M365.5,106 L365.5,116 L375.5,116 L365.5,106 " fill="#FBFB77" style="stroke:#A80036;stroke-width:1.0;"/><text fill="#000000" font-family="sans-serif" font-size="13" lengthAdjust="spacing" textLength="104" x="256.5" y="124.4951">Test infrastructure</text></g><!--link Cheep to Author--><g id="link_Cheep_Author"><path codeLine="21" d="M112.21,119 C123.43,119 123.75,119 134.96,119 " fill="none" id="Cheep-Author" style="stroke:#A80036;stroke-width:1.0;"/><polygon fill="#A80036" points="106.21,119,115.21,123,111.21,119,115.21,115,106.21,119" style="stroke:#A80036;stroke-width:1.0;"/><polygon fill="#A80036" points="140.96,119,131.96,115,135.96,119,131.96,123,140.96,119" style="stroke:#A80036;stroke-width:1.0;"/><text fill="#000000" font-family="sans-serif" font-size="13" lengthAdjust="spacing" textLength="20" x="112.9329" y="115.051">0..*</text><text fill="#000000" font-family="sans-serif" font-size="13" lengthAdjust="spacing" textLength="7" x="125.9787" y="114.9932">1</text></g><!--reverse link ICheepRepository to CheepRepository--><g id="link_ICheepRepository_CheepRepository"><path codeLine="39" d="M697,170.11 C697,188.48 697,193.27 697,211.68 " fill="none" id="ICheepRepository-backto-CheepRepository" style="stroke:#A80036;stroke-width:1.0;"/><polygon fill="none" points="697,152.11,691,170.11,703,170.11,697,152.11" style="stroke:#A80036;stroke-width:1.0;"/></g><!--reverse link ICheepServices to CheepServices--><g id="link_ICheepServices_CheepServices"><path codeLine="55" d="M502,170.11 C502,188.48 502,193.27 502,211.68 " fill="none" id="ICheepServices-backto-CheepServices" style="stroke:#A80036;stroke-width:1.0;"/><polygon fill="none" points="502,152.11,496,170.11,508,170.11,502,152.11" style="stroke:#A80036;stroke-width:1.0;"/></g><!--link tests to web--><g id="link_tests_web"><path codeLine="83" d="M313,272.8 C313,315.42 313,399.9125 313,475.225 C313,494.0531 313,512.3075 313,529.1904 C313,533.4112 313,537.5462 313,541.583 C313,542.5922 313,537.5953 313,538.592 " fill="none" id="tests-to-web" style="stroke:#A80036;stroke-width:1.0;stroke-dasharray:7.0,7.0;"/><polygon fill="#A80036" points="313,544.592,317,535.592,313,539.592,309,535.592,313,544.592" style="stroke:#A80036;stroke-width:1.0;"/></g><!--SRC=[VPDHRnen3CUVBv_2ueMoYMZR8vgeDfwOLWbrc_hGJLN86IvgI4w93tRh-EvpSa0fq2741Vjl- -UpquzQMOGF8ZuQ1y575A9FlWRoCFT4VWMb2QZ9U2Vw5XUKFC4iApfovEXQ1RK2QnnIMoFuG9KNebRwKIqHUfFAX5fEVC0Ug0YQ3_0aHA6jYX4c5M8jYYTH559AKMmFdayDvmadhYo7tZift_JWut2OWOR3CVJUz_OHOdjMVUeMGKKAZQPcns5Uc3BHIT0jrZuQyi5Wp27Xo9032kC8mq9fX6acEuIqx4pW7Nb6FsxuTLrHyFT4CspguT_nUOdkbPnGVyEmDdf777T_BjFkfVzdVKtrJBfNm0lGGrp6F9_97SupumRdH_im2tx9wzID_ItSAEEkL5Z64V2iZ5lU_nfSRFjM_V51pjZITLwd4-TDeCuJxfVQBtQk4Koy8quV8SVkp5TInufMTl3JALS2LMWw5wnyYVPPm8_1fROwaEyOgGEXT4eDRaNcI7UC8Jhp29BmP1Vv8i9TrOA9gJplfdUsvH_CTmoIwVgQDPzHgoOYpAnozEFcQmfu2AYiRH-WKg5CDrPxjpPEfxgGn9mHh6fzGvnXoh8rSdbO6LTAoOOog4sk4s6bN9EImSPG1Se1_kRzSSf2tGr9SeelJURNjYbvEXsbvyC15QBdeeeuj-OSsjTjXeZKMfIYUmyoVyPf5yG_]--></g></svg>