<?xml version="1.0" encoding="UTF-8"?>
<svg xmlns="http://www.w3.org/2000/svg" version="1.1" xmlns:xlink="http://www.w3.org/1999/xlink" viewBox="0 0 1406 790.9">
  <defs>
    <style>
      .cls-1 {
        fill: #add1b2;
      }

      .cls-1, .cls-2, .cls-3, .cls-4, .cls-5, .cls-6 {
        stroke: #a80036;
      }

      .cls-7 {
        letter-spacing: 0em;
      }

      .cls-8 {
      }

      .cls-2, .cls-9 {
        fill: #fbfb77;
      }

      .cls-10 {
        letter-spacing: 0em;
      }

      .cls-11, .cls-12 {
        font-size: 14px;
      }

      .cls-11, .cls-12, .cls-13 {
        isolation: isolate;
      }

      .cls-11, .cls-13 {
        font-family: ArialMT, Arial;
      }

      .cls-14 {
        letter-spacing: 0em;
      }

      .cls-15 {
        letter-spacing: .2em;
      }

      .cls-16 {
        letter-spacing: 0em;
      }

      .cls-12 {
        font-family: Arial-ItalicMT, Arial;
        font-style: italic;
      }

      .cls-17 {
        letter-spacing: 0em;
      }

      .cls-18 {
      }

      .cls-19 {
        letter-spacing: 0em;
      }

      .cls-20 {
      }

      .cls-21 {
        letter-spacing: 0em;
      }

      .cls-22 {
        letter-spacing: 0em;
      }

      .cls-23 {
        letter-spacing: 1.3em;
      }

      .cls-24 {
      }

      .cls-25 {
      }

      .cls-3 {
        fill: #a80036;
      }

      .cls-26 {
        letter-spacing: 0em;
      }

      .cls-27 {
        fill: #fefece;
      }

      .cls-28 {
      }

      .cls-29 {
      }

      .cls-30 {
        fill: #84be84;
        stroke: #038048;
      }

      .cls-4 {
        stroke-dasharray: 7 7;
      }

      .cls-4, .cls-31, .cls-6 {
        fill: none;
      }

      .cls-13 {
        font-size: 13px;
      }

      .cls-31 {
        stroke: #000;
        stroke-width: 1.5px;
      }

      .cls-32 {
        letter-spacing: 0em;
      }

      .cls-33 {
      }

      .cls-34 {
        letter-spacing: 0em;
      }

      .cls-35 {
      }

      .cls-5 {
        fill: #b4a7e5;
      }

      .cls-36 {
        letter-spacing: 0em;
      }

      .cls-37 {
        letter-spacing: 0em;
      }

      .cls-38 {
      }

      .cls-39 {
        letter-spacing: 0em;
      }

      .cls-40 {
        letter-spacing: 0em;
      }

      .cls-41 {
        letter-spacing: 0em;
      }

      .cls-42 {
      }

      .cls-43 {
      }

      .cls-44 {
      }

      .cls-45 {
        letter-spacing: 0em;
      }

      .cls-46 {
      }

      .cls-47 {
      }

      .cls-48 {
      }

      .cls-49 {
        letter-spacing: 0em;
      }

      .cls-50 {
        letter-spacing: 0em;
      }

      .cls-51 {
        letter-spacing: 0em;
      }
    </style>
  </defs>
  <!-- Generator: Adobe Illustrator 28.6.0, SVG Export Plug-In . SVG Version: 1.2.0 Build 709)  -->
  <g>
    <g id="Layer_1">
      <g>
        <g id="cluster_core">
          <g class="cls-29">
            <polygon class="cls-31" points="305.5 49.4 380.5 49.4 387.5 73 520.5 73 520.5 167.4 305.5 167.4 305.5 49.4"/>
          </g>
          <line class="cls-31" x1="305.5" y1="73" x2="387.5" y2="73"/>
          <text class="cls-11" transform="translate(309.5 66)"><tspan class="cls-7" x="0" y="0">Chirp.Cor</tspan><tspan x="61.2" y="0">e</tspan></text>
        </g>
        <g id="cluster_infrastructure">
          <g class="cls-44">
            <polygon class="cls-31" points="685.5 5.4 813.5 5.4 820.5 29 1099.5 29 1099.5 317.4 685.5 317.4 685.5 5.4"/>
          </g>
          <line class="cls-31" x1="685.5" y1="29" x2="820.5" y2="29"/>
          <text class="cls-11" transform="translate(689.5 22)"><tspan class="cls-50" x="0" y="0">Chirp.Infrastructur</tspan><tspan x="114.2" y="0">e</tspan></text>
        </g>
        <g id="cluster_repositories">
          <g class="cls-24">
            <polygon class="cls-31" points="897.5 49.4 1020.5 49.4 1027.5 73 1075.5 73 1075.5 293.4 897.5 293.4 897.5 49.4"/>
          </g>
          <line class="cls-31" x1="897.5" y1="73" x2="1027.5" y2="73"/>
          <text class="cls-11" transform="translate(901.5 66)"><tspan class="cls-39" x="0" y="0">Chirp.Repositorie</tspan><tspan x="110" y="0">s</tspan></text>
        </g>
        <g id="cluster_services">
          <g class="cls-43">
            <polygon class="cls-31" points="709.5 49.4 807.5 49.4 814.5 73 873.5 73 873.5 293.4 709.5 293.4 709.5 49.4"/>
          </g>
          <line class="cls-31" x1="709.5" y1="73" x2="814.5" y2="73"/>
          <text class="cls-11" transform="translate(713.5 66)"><tspan class="cls-22" x="0" y="0">Chirp.Service</tspan><tspan x="85" y="0">s</tspan></text>
        </g>
        <g id="cluster_web">
          <g class="cls-8">
            <polygon class="cls-31" points="594.5 545.4 667.5 545.4 674.5 569 981.5 569 981.5 782.4 594.5 782.4 594.5 545.4"/>
          </g>
          <line class="cls-31" x1="594.5" y1="569" x2="674.5" y2="569"/>
          <text class="cls-11" transform="translate(598.5 562)"><tspan class="cls-39" x="0" y="0">Chirp.We</tspan><tspan x="59.2" y="0">b</tspan></text>
        </g>
        <g id="elem_Cheep">
          <g id="Cheep" class="cls-28">
            <rect class="cls-27" x="321.5" y="85.4" width="74" height="65.6"/>
            <rect class="cls-6" x="321.5" y="85.4" width="74" height="65.6"/>
          </g>
          <circle class="cls-1" cx="336.5" cy="101.4" r="11"/>
          <path d="M339.3,97.3c.1-.1.2-.3.3-.3.1,0,.3-.1.4-.1.2,0,.5,0,.6.3.2.2.2.5.2.9v1.5c0,.4,0,.7-.2.9-.2.2-.4.3-.6.3s-.4,0-.5-.2c-.1-.1-.2-.4-.3-.7,0-.2-.1-.4-.2-.5-.2-.2-.5-.4-.9-.6-.4-.1-.8-.2-1.2-.2s-1,.1-1.4.3c-.4.2-.8.6-1.1,1.1-.3.5-.5,1.1-.5,1.8v1.1c0,.8.3,1.5.9,2.1.6.5,1.4.8,2.5.8s1.2,0,1.6-.2c.3-.1.5-.3.8-.6.2-.2.3-.3.4-.3.1,0,.2,0,.4,0,.2,0,.4,0,.6.3.2.2.3.4.3.6s-.1.5-.3.8c-.3.4-.8.7-1.3.9-.7.3-1.5.5-2.4.5s-1.9-.2-2.7-.6c-.7-.3-1.2-.9-1.7-1.6-.5-.7-.7-1.5-.7-2.4v-1.2c0-.9.2-1.7.6-2.5.4-.8,1-1.4,1.7-1.8.7-.4,1.5-.6,2.3-.6s.9,0,1.4.2c.4.1.8.3,1.2.5Z"/>
          <text class="cls-11" transform="translate(350.5 107.2)"><tspan class="cls-26" x="0" y="0">Chee</tspan><tspan x="34.2" y="0">p</tspan></text>
          <line class="cls-6" x1="322.5" y1="117.4" x2="394.5" y2="117.4"/>
          <text class="cls-11" transform="translate(327.5 136)"><tspan class="cls-34" x="0" y="0">..</tspan><tspan x="8.1" y="0">.</tspan></text>
          <line class="cls-6" x1="322.5" y1="143" x2="394.5" y2="143"/>
        </g>
        <g id="elem_Author">
          <g id="Author" class="cls-46">
            <rect class="cls-27" x="430.5" y="85.4" width="74" height="65.6"/>
            <rect class="cls-6" x="430.5" y="85.4" width="74" height="65.6"/>
          </g>
          <circle class="cls-1" cx="445.5" cy="101.4" r="11"/>
          <path d="M448.3,97.3c.1-.1.2-.3.3-.3.1,0,.3-.1.4-.1.2,0,.5,0,.6.3.2.2.2.5.2.9v1.5c0,.4,0,.7-.2.9-.2.2-.4.3-.6.3s-.4,0-.5-.2c-.1-.1-.2-.4-.3-.7,0-.2-.1-.4-.2-.5-.2-.2-.5-.4-.9-.6-.4-.1-.8-.2-1.2-.2s-1,.1-1.4.3c-.4.2-.8.6-1.1,1.1-.3.5-.5,1.1-.5,1.8v1.1c0,.8.3,1.5.9,2.1.6.5,1.4.8,2.5.8s1.2,0,1.6-.2c.3-.1.5-.3.8-.6.2-.2.3-.3.4-.3.1,0,.2,0,.4,0,.2,0,.4,0,.6.3.2.2.3.4.3.6s-.1.5-.3.8c-.3.4-.8.7-1.3.9-.7.3-1.5.5-2.4.5s-1.9-.2-2.7-.6c-.7-.3-1.2-.9-1.7-1.6-.5-.7-.7-1.5-.7-2.4v-1.2c0-.9.2-1.7.6-2.5.4-.8,1-1.4,1.7-1.8.7-.4,1.5-.6,2.3-.6s.9,0,1.4.2c.4.1.8.3,1.2.5Z"/>
          <text class="cls-11" transform="translate(459.5 107.2)"><tspan class="cls-49" x="0" y="0">Autho</tspan><tspan x="37.3" y="0">r</tspan></text>
          <line class="cls-6" x1="431.5" y1="117.4" x2="503.5" y2="117.4"/>
          <text class="cls-11" transform="translate(436.5 136)"><tspan class="cls-34" x="0" y="0">..</tspan><tspan x="8.1" y="0">.</tspan></text>
          <line class="cls-6" x1="431.5" y1="143" x2="503.5" y2="143"/>
        </g>
        <g id="elem_ICheepRepository">
          <g id="ICheepRepository" class="cls-18">
            <rect class="cls-27" x="913.5" y="85.4" width="146" height="65.6"/>
            <rect class="cls-6" x="913.5" y="85.4" width="146" height="65.6"/>
          </g>
          <circle class="cls-5" cx="928.5" cy="101.4" r="11"/>
          <path d="M929.4,98.1v6.7h1.7c.4,0,.7,0,.9.2.2.2.3.4.3.6s0,.5-.3.6c-.2.2-.5.2-.9.2h-5.1c-.4,0-.7,0-.9-.2-.2-.2-.3-.4-.3-.6s0-.5.3-.6c.2-.2.5-.2.9-.2h1.7v-6.7h-1.7c-.4,0-.7,0-.9-.2-.2-.2-.3-.4-.3-.6s0-.5.3-.6c.2-.2.5-.2.9-.2h5.1c.4,0,.7,0,.9.2s.3.4.3.6,0,.5-.3.6c-.2.2-.5.2-.9.2h-1.7Z"/>
          <text class="cls-12" transform="translate(942.5 107.2)"><tspan class="cls-16" x="0" y="0">ICheepRepositor</tspan><tspan x="107" y="0">y</tspan></text>
          <line class="cls-6" x1="914.5" y1="117.4" x2="1058.5" y2="117.4"/>
          <text class="cls-11" transform="translate(919.5 136)"><tspan class="cls-37" x="0" y="0">..</tspan><tspan x="8.1" y="0">.</tspan></text>
          <line class="cls-6" x1="914.5" y1="143" x2="1058.5" y2="143"/>
        </g>
        <g id="elem_CheepRepository">
          <g id="CheepRepository" class="cls-47">
            <rect class="cls-27" x="915.5" y="211.4" width="142" height="65.6"/>
            <rect class="cls-6" x="915.5" y="211.4" width="142" height="65.6"/>
          </g>
          <circle class="cls-1" cx="930.5" cy="227.4" r="11"/>
          <path d="M933.3,223.3c.1-.1.2-.3.3-.3.1,0,.3-.1.4-.1.2,0,.5,0,.6.3.2.2.2.5.2.9v1.5c0,.4,0,.7-.2.9-.2.2-.4.3-.6.3s-.4,0-.5-.2c-.1-.1-.2-.4-.3-.7,0-.2-.1-.4-.2-.5-.2-.3-.5-.4-.9-.6-.4-.1-.8-.2-1.2-.2-.5,0-1,.1-1.4.3-.4.2-.8.6-1.1,1.1-.3.5-.5,1.1-.5,1.8v1.1c0,.8.3,1.5.9,2.1.6.5,1.4.8,2.5.8.6,0,1.2,0,1.6-.2.3-.1.5-.3.8-.6.2-.2.3-.3.4-.3.1,0,.2,0,.4,0,.2,0,.4,0,.6.3.2.2.3.4.3.6s-.1.5-.3.8c-.3.4-.8.7-1.3.9-.7.3-1.5.5-2.4.5s-1.9-.2-2.7-.6c-.7-.3-1.2-.9-1.7-1.6-.5-.7-.7-1.5-.7-2.4v-1.2c0-.9.2-1.7.6-2.5.4-.8,1-1.4,1.7-1.8.7-.4,1.5-.6,2.3-.6s.9,0,1.4.2c.4.1.8.3,1.2.5Z"/>
          <text class="cls-11" transform="translate(944.5 233.2)"><tspan class="cls-36" x="0" y="0">CheepRepositor</tspan><tspan x="103" y="0">y</tspan></text>
          <line class="cls-6" x1="916.5" y1="243.4" x2="1056.5" y2="243.4"/>
          <text class="cls-11" transform="translate(921.5 262)"><tspan class="cls-37" x="0" y="0">..</tspan><tspan x="8.1" y="0">.</tspan></text>
          <line class="cls-6" x1="916.5" y1="269" x2="1056.5" y2="269"/>
        </g>
        <g id="elem_ICheepServices">
          <g id="ICheepServices" class="cls-35">
            <rect class="cls-27" x="726" y="85.4" width="131" height="65.6"/>
            <rect class="cls-6" x="726" y="85.4" width="131" height="65.6"/>
          </g>
          <circle class="cls-5" cx="741" cy="101.4" r="11"/>
          <path d="M741.9,98.1v6.7h1.7c.4,0,.7,0,.9.2.2.2.3.4.3.6s0,.5-.3.6c-.2.2-.5.2-.9.2h-5.1c-.4,0-.7,0-.9-.2-.2-.2-.3-.4-.3-.6s0-.5.3-.6c.2-.2.5-.2.9-.2h1.7v-6.7h-1.7c-.4,0-.7,0-.9-.2-.2-.2-.3-.4-.3-.6s0-.5.3-.6c.2-.2.5-.2.9-.2h5.1c.4,0,.7,0,.9.2s.3.4.3.6,0,.5-.3.6c-.2.2-.5.2-.9.2h-1.7Z"/>
          <text class="cls-12" transform="translate(755 107.2)"><tspan x="0" y="0">ICheepServices</tspan></text>
          <line class="cls-6" x1="727" y1="117.4" x2="856" y2="117.4"/>
          <text class="cls-11" transform="translate(732 136)"><tspan class="cls-37" x="0" y="0">..</tspan><tspan x="8.1" y="0">.</tspan></text>
          <line class="cls-6" x1="727" y1="143" x2="856" y2="143"/>
        </g>
        <g id="elem_CheepServices">
          <g id="CheepServices" class="cls-25">
            <rect class="cls-27" x="727.5" y="211.4" width="128" height="65.6"/>
            <rect class="cls-6" x="727.5" y="211.4" width="128" height="65.6"/>
          </g>
          <circle class="cls-1" cx="742.5" cy="227.4" r="11"/>
          <path d="M745.3,223.3c.1-.1.2-.3.3-.3.1,0,.3-.1.4-.1.2,0,.5,0,.6.3.2.2.2.5.2.9v1.5c0,.4,0,.7-.2.9-.2.2-.4.3-.6.3s-.4,0-.5-.2c-.1-.1-.2-.4-.3-.7,0-.2-.1-.4-.2-.5-.2-.3-.5-.4-.9-.6-.4-.1-.8-.2-1.2-.2-.5,0-1,.1-1.4.3-.4.2-.8.6-1.1,1.1-.3.5-.5,1.1-.5,1.8v1.1c0,.8.3,1.5.9,2.1.6.5,1.4.8,2.5.8.6,0,1.2,0,1.6-.2.3-.1.5-.3.8-.6.2-.2.3-.3.4-.3.1,0,.2,0,.4,0,.2,0,.4,0,.6.3.2.2.3.4.3.6s-.1.5-.3.8c-.3.4-.8.7-1.3.9-.7.3-1.5.5-2.4.5s-1.9-.2-2.7-.6c-.7-.3-1.2-.9-1.7-1.6-.5-.7-.7-1.5-.7-2.4v-1.2c0-.9.2-1.7.6-2.5.4-.8,1-1.4,1.7-1.8.7-.4,1.5-.6,2.3-.6s.9,0,1.4.2c.4.1.8.3,1.2.5Z"/>
          <text class="cls-11" transform="translate(756.5 233.2)"><tspan class="cls-10" x="0" y="0">CheepService</tspan><tspan x="89" y="0">s</tspan></text>
          <line class="cls-6" x1="728.5" y1="243.4" x2="854.5" y2="243.4"/>
          <text class="cls-11" transform="translate(733.5 262)"><tspan class="cls-37" x="0" y="0">..</tspan><tspan x="8.1" y="0">.</tspan></text>
          <line class="cls-6" x1="728.5" y1="269" x2="854.5" y2="269"/>
        </g>
        <g id="elem_Program">
          <g id="Program" class="cls-20">
            <rect class="cls-27" x="812" y="589.4" width="145" height="65.6"/>
            <rect class="cls-6" x="812" y="589.4" width="145" height="65.6"/>
          </g>
          <circle class="cls-1" cx="853.5" cy="605.4" r="11"/>
          <path d="M856.3,601.3c.1-.1.2-.3.3-.3s.3-.1.4-.1c.2,0,.5,0,.6.3.2.2.2.5.2.9v1.5c0,.4,0,.7-.2.9-.2.2-.4.3-.6.3s-.4,0-.5-.2c-.1-.1-.2-.4-.3-.7,0-.2-.1-.4-.2-.5-.2-.2-.5-.4-.9-.6-.4-.1-.8-.2-1.2-.2s-1,.1-1.4.3c-.4.2-.8.6-1.1,1.1-.3.5-.5,1.1-.5,1.8v1.1c0,.8.3,1.5.9,2.1.6.5,1.4.8,2.5.8s1.2,0,1.6-.2c.3-.1.5-.3.8-.6.2-.2.3-.3.4-.3.1,0,.2,0,.4,0,.2,0,.4,0,.6.3.2.2.3.4.3.6s-.1.5-.3.8c-.3.4-.8.7-1.3.9-.7.3-1.5.5-2.4.5s-1.9-.2-2.7-.6c-.7-.3-1.2-.9-1.7-1.6-.5-.7-.7-1.5-.7-2.4v-1.2c0-.9.2-1.7.6-2.5.4-.8,1-1.4,1.7-1.8.7-.4,1.5-.6,2.3-.6s.9,0,1.4.2c.4.1.8.3,1.2.5Z"/>
          <text class="cls-11" transform="translate(873.4 611.2)"><tspan class="cls-45" x="0" y="0">Progra</tspan><tspan x="42.3" y="0">m</tspan></text>
          <line class="cls-6" x1="813" y1="621.4" x2="956" y2="621.4"/>
          <line class="cls-6" x1="813" y1="629.4" x2="956" y2="629.4"/>
          <circle class="cls-30" cx="823" cy="643.7" r="3"/>
          <text class="cls-11" transform="translate(832 648)"><tspan x="0" y="0">Main(args:</tspan><tspan class="cls-15" x="66.1" y="0"> </tspan><tspan x="72.3" y="0">string[])</tspan></text>
        </g>
        <g id="elem_GMN20">
          <g class="cls-33">
            <polyline class="cls-9" points="637.5 715.4 637.5 758.1 637.5 758.1 859.5 758.1 859.5 758.1 859.5 725.4 849.5 715.4 711.5 715.4 707.5 650.2 703.5 715.4 637.5 715.4 637.5 715.4"/>
            <polyline class="cls-6" points="637.5 715.4 637.5 758.1 637.5 758.1 859.5 758.1 859.5 758.1 859.5 725.4 849.5 715.4 711.5 715.4 707.5 650.2 703.5 715.4 637.5 715.4 637.5 715.4"/>
          </g>
          <path class="cls-2" d="M849.5,715.4v10h10l-10-10"/>
          <text class="cls-13" transform="translate(643.5 733.9)"><tspan x="0" y="0">Contains</tspan><tspan class="cls-41" x="51.3" y="0"> </tspan><tspan x="55.2" y="0">Razor</tspan><tspan class="cls-21" x="89.9" y="0"> </tspan><tspan x="93.8" y="0">pages</tspan><tspan class="cls-41" x="129.3" y="0"> </tspan><tspan x="133.2" y="0">(.cshtml)</tspan></text>
          <text class="cls-13" transform="translate(643.5 750.3)"><tspan x="0" y="0">and</tspan><tspan class="cls-32" x="21.7" y="0"> </tspan><tspan x="25.9" y="0">their</tspan><tspan class="cls-32" x="51.2" y="0"> </tspan><tspan x="55.4" y="0">page</tspan><tspan class="cls-17" x="84.3" y="0"> </tspan><tspan x="88.5" y="0">models</tspan><tspan class="cls-32" x="130.4" y="0"> </tspan><tspan x="134.6" y="0">(.cshtml.cs)</tspan></text>
        </g>
        <g class="cls-42">
          <polygon class="cls-27" points="638 594.9 763 594.9 770 618.5 777 618.5 777 650.2 638 650.2 638 594.9"/>
          <polygon class="cls-6" points="638 594.9 763 594.9 770 618.5 777 618.5 777 650.2 638 650.2 638 594.9"/>
        </g>
        <line class="cls-6" x1="638" y1="618.5" x2="770" y2="618.5"/>
        <text class="cls-11" transform="translate(642 611.5)"><tspan class="cls-19" x="0" y="0">Chirp.Razor.Page</tspan><tspan x="112" y="0">s</tspan></text>
        <g class="cls-38">
          <polygon class="cls-27" points="535.5 216.9 655.5 216.9 662.5 240.5 669.5 240.5 669.5 272.2 535.5 272.2 535.5 216.9"/>
          <polygon class="cls-6" points="535.5 216.9 655.5 216.9 662.5 240.5 669.5 240.5 669.5 272.2 535.5 272.2 535.5 216.9"/>
        </g>
        <line class="cls-6" x1="535.5" y1="240.5" x2="662.5" y2="240.5"/>
        <text class="cls-11" transform="translate(539.5 233.5)"><tspan class="cls-51" x="0" y="0">Chirp.Razor.Test</tspan><tspan x="107" y="0">s</tspan></text>
        <g id="elem_GMN24">
          <g class="cls-48">
            <polyline class="cls-9" points="540 105.4 540 131.8 540 131.8 598.5 131.8 602.5 216.9 606.5 131.8 665 131.8 665 131.8 665 115.4 655 105.4 540 105.4 540 105.4"/>
            <polyline class="cls-6" points="540 105.4 540 131.8 540 131.8 598.5 131.8 602.5 216.9 606.5 131.8 665 131.8 665 131.8 665 115.4 655 105.4 540 105.4 540 105.4"/>
          </g>
          <path class="cls-2" d="M655,105.4v10h10l-10-10"/>
          <text class="cls-13" transform="translate(546 123.9)"><tspan x="0" y="0">Test</tspan><tspan class="cls-23" x="25.3" y="0"> </tspan><tspan class="cls-40" x="46.2" y="0">infrastruc</tspan><tspan x="99.7" y="0">-</tspan></text>
        </g>
        <g id="link_Cheep_Author">
          <path id="Cheep-Author" class="cls-6" d="M401.7,118.4h22.8"/>
          <polygon class="cls-3" points="395.7 118.4 404.7 122.4 400.7 118.4 404.7 114.4 395.7 118.4"/>
          <polygon class="cls-3" points="430.5 118.4 421.5 114.4 425.5 118.4 421.5 122.4 430.5 118.4"/>
          <text class="cls-13" transform="translate(402.4 114.5)"><tspan class="cls-14" x="0" y="0">0..</tspan><tspan x="14.9" y="0">*</tspan></text>
          <text class="cls-13" transform="translate(415.5 114.4)"><tspan x="0" y="0">1</tspan></text>
        </g>
        <g id="link_ICheepRepository_CheepRepository">
          <path id="ICheepRepository-backto-CheepRepository" class="cls-6" d="M986.5,169.5v41.6"/>
          <polygon class="cls-6" points="986.5 151.5 980.5 169.5 992.5 169.5 986.5 151.5"/>
        </g>
        <g id="link_ICheepServices_CheepServices">
          <path id="ICheepServices-backto-CheepServices" class="cls-6" d="M791.5,169.5v41.6"/>
          <polygon class="cls-6" points="791.5 151.5 785.5 169.5 797.5 169.5 791.5 151.5"/>
        </g>
        <g id="link_tests_web">
          <path id="tests-to-web" class="cls-4" d="M602.5,272.2v268.8c0,1,0-4,0-3"/>
          <polygon class="cls-3" points="602.5 544 606.5 535 602.5 539 598.5 535 602.5 544"/>
        </g>
      </g>
    </g>
  </g>
</svg>