<?xml version="1.0" encoding="UTF-8"?>
<svg xmlns="http://www.w3.org/2000/svg" version="1.1" viewBox="0 0 1040.2 585.2">
  <defs>
    <style>
      .cls-1 {
        fill: #add1b2;
      }

      .cls-1, .cls-2, .cls-3, .cls-4, .cls-5, .cls-6, .cls-7 {
        stroke: #a80036;
      }

      .cls-2 {
        fill: #fbfb77;
      }

      .cls-8, .cls-9 {
        font-size: 14px;
      }

      .cls-8, .cls-9, .cls-10, .cls-11 {
        isolation: isolate;
      }

      .cls-8, .cls-10 {
        font-family: ArialMT, Arial;
      }

      .cls-9 {
        font-family: Arial-ItalicMT, Arial;
        font-style: italic;
      }

      .cls-12 {
        fill: #76c968;
      }

      .cls-12, .cls-13, .cls-14, .cls-15, .cls-16 {
        stroke: #000;
        stroke-width: 1.5px;
      }

      .cls-12, .cls-13, .cls-15, .cls-16 {
        stroke-miterlimit: 10;
      }

      .cls-13 {
        fill: #ffc000;
      }

      .cls-17 {
        opacity: .2;
      }

      .cls-3, .cls-18 {
        fill: #a80036;
      }

      .cls-19 {
        fill: #84be84;
        stroke: #038048;
      }

      .cls-4 {
        stroke-dasharray: 7 7;
      }

      .cls-4, .cls-14, .cls-6 {
        fill: none;
      }

      .cls-10 {
        font-size: 13px;
      }

      .cls-15 {
        fill: #eeaf75;
      }

      .cls-5 {
        fill: #b4a7e5;
      }

      .cls-16 {
        fill: #96d1e2;
      }

      .cls-7 {
        fill: #fefece;
      }
    </style>
  </defs>
  <!-- Generator: Adobe Illustrator 28.6.0, SVG Export Plug-In . SVG Version: 1.2.0 Build 709)  -->
  <g>
    <g id="Layer_1">
      <g id="onion_layers" class="cls-17">
        <circle class="cls-16" cx="889.6" cy="183.9" r="911.7"/>
        <circle class="cls-12" cx="889.6" cy="183.9" r="613.7"/>
        <circle class="cls-15" cx="889.6" cy="183.9" r="382.1"/>
        <circle class="cls-13" cx="889.6" cy="183.9" r="144.6"/>
      </g>
      <g id="cluster_core">
        <polygon class="cls-14" points="767.8 127.8 842.8 127.8 849.8 151.4 1011 151.4 1011 243 767.8 243 767.8 127.8"/>
        <line class="cls-14" x1="767.8" y1="151.4" x2="849.8" y2="151.4"/>
        <g class="cls-11">
          <g class="cls-11">
            <g class="cls-11">
              <g class="cls-11">
                <text class="cls-8" transform="translate(771.8 144.4)"><tspan x="0" y="0">Chirp.Cor</tspan></text>
              </g>
            </g>
          </g>
          <g class="cls-11">
            <g class="cls-11">
              <g class="cls-11">
                <text class="cls-8" transform="translate(833 144.4)"><tspan x="0" y="0">e</tspan></text>
              </g>
            </g>
          </g>
        </g>
      </g>
      <g id="cluster_web">
        <polygon class="cls-14" points="7.4 31.1 80.4 31.1 87.4 54.7 266.9 54.7 266.9 354.6 7.4 354.6 7.4 31.1"/>
        <line class="cls-14" x1="7.4" y1="54.7" x2="87.4" y2="54.7"/>
        <g class="cls-11">
          <g class="cls-11">
            <g class="cls-11">
              <g class="cls-11">
                <text class="cls-8" transform="translate(11.4 47.7)"><tspan x="0" y="0">Chirp.We</tspan></text>
              </g>
            </g>
          </g>
          <g class="cls-11">
            <g class="cls-11">
              <g class="cls-11">
                <text class="cls-8" transform="translate(70.6 47.7)"><tspan x="0" y="0">b</tspan></text>
              </g>
            </g>
          </g>
        </g>
      </g>
      <g id="elem_Cheep">
        <rect id="Cheep" class="cls-7" x="783.8" y="163.8" width="74" height="65.6"/>
        <circle class="cls-1" cx="798.8" cy="179.8" r="11"/>
        <path d="M801.6,175.7s.2-.3.3-.3h.4c.2,0,.5,0,.6.3.2.2.2.5.2.9v1.5c0,.4,0,.7-.2.9s-.4.3-.6.3-.4,0-.5-.2c0,0-.2-.4-.3-.7,0-.2,0-.4-.2-.5-.2-.2-.5-.4-.9-.6-.4,0-.8-.2-1.2-.2s-1,0-1.4.3c-.4.2-.8.6-1.1,1.1s-.5,1.1-.5,1.8v1.1c0,.8.3,1.5.9,2.1.6.5,1.4.8,2.5.8s1.2,0,1.6-.2c.3,0,.5-.3.8-.6.2-.2.3-.3.4-.3h.4c.2,0,.4,0,.6.3.2.2.3.4.3.6s0,.5-.3.8c-.3.4-.8.7-1.3.9-.7.3-1.5.5-2.4.5s-1.9-.2-2.7-.6c-.7-.3-1.2-.9-1.7-1.6s-.7-1.5-.7-2.4v-1.2c0-.9.2-1.7.6-2.5s1-1.4,1.7-1.8,1.5-.6,2.3-.6.9,0,1.4.2c.4,0,.8.3,1.2.5l-.2-.5h0Z"/>
        <g class="cls-11">
          <g class="cls-11">
            <g class="cls-11">
              <g class="cls-11">
                <text class="cls-8" transform="translate(812.8 185.6)"><tspan x="0" y="0">Chee</tspan></text>
              </g>
            </g>
          </g>
          <g class="cls-11">
            <g class="cls-11">
              <g class="cls-11">
                <text class="cls-8" transform="translate(847 185.6)"><tspan x="0" y="0">p</tspan></text>
              </g>
            </g>
          </g>
        </g>
        <line class="cls-6" x1="784.8" y1="195.8" x2="856.8" y2="195.8"/>
        <g class="cls-11">
          <g class="cls-11">
            <g class="cls-11">
              <g class="cls-11">
                <text class="cls-8" transform="translate(789.8 214.4)"><tspan x="0" y="0">..</tspan></text>
              </g>
            </g>
          </g>
          <g class="cls-11">
            <g class="cls-11">
              <g class="cls-11">
                <text class="cls-8" transform="translate(797.9 214.4)"><tspan x="0" y="0">.</tspan></text>
              </g>
            </g>
          </g>
        </g>
        <line class="cls-6" x1="784.8" y1="221.4" x2="856.8" y2="221.4"/>
      </g>
      <g id="elem_Author">
        <rect id="Author" class="cls-7" x="921.2" y="163.8" width="74" height="65.6"/>
        <circle class="cls-1" cx="936.2" cy="179.8" r="11"/>
        <path d="M939,175.7s.2-.3.3-.3h.4c.2,0,.5,0,.6.3.2.2.2.5.2.9v1.5c0,.4,0,.7-.2.9s-.4.3-.6.3-.4,0-.5-.2c0,0-.2-.4-.3-.7,0-.2,0-.4-.2-.5-.2-.2-.5-.4-.9-.6-.4,0-.8-.2-1.2-.2s-1,0-1.4.3c-.4.2-.8.6-1.1,1.1s-.5,1.1-.5,1.8v1.1c0,.8.3,1.5.9,2.1.6.5,1.4.8,2.5.8s1.2,0,1.6-.2c.3,0,.5-.3.8-.6.2-.2.3-.3.4-.3h.4c.2,0,.4,0,.6.3.2.2.3.4.3.6s0,.5-.3.8c-.3.4-.8.7-1.3.9-.7.3-1.5.5-2.4.5s-1.9-.2-2.7-.6c-.7-.3-1.2-.9-1.7-1.6s-.7-1.5-.7-2.4v-1.2c0-.9.2-1.7.6-2.5s1-1.4,1.7-1.8,1.5-.6,2.3-.6.9,0,1.4.2c.4,0,.8.3,1.2.5l-.2-.5h0Z"/>
        <g class="cls-11">
          <g class="cls-11">
            <g class="cls-11">
              <g class="cls-11">
                <text class="cls-8" transform="translate(950.2 185.6)"><tspan x="0" y="0">Autho</tspan></text>
              </g>
            </g>
          </g>
          <g class="cls-11">
            <g class="cls-11">
              <g class="cls-11">
                <text class="cls-8" transform="translate(987.5 185.6)"><tspan x="0" y="0">r</tspan></text>
              </g>
            </g>
          </g>
        </g>
        <line class="cls-6" x1="922.2" y1="195.8" x2="994.2" y2="195.8"/>
        <g class="cls-11">
          <g class="cls-11">
            <g class="cls-11">
              <g class="cls-11">
                <text class="cls-8" transform="translate(927.2 214.4)"><tspan x="0" y="0">..</tspan></text>
              </g>
            </g>
          </g>
          <g class="cls-11">
            <g class="cls-11">
              <g class="cls-11">
                <text class="cls-8" transform="translate(935.3 214.4)"><tspan x="0" y="0">.</tspan></text>
              </g>
            </g>
          </g>
        </g>
        <line class="cls-6" x1="922.2" y1="221.4" x2="994.2" y2="221.4"/>
      </g>
      <g id="elem_Program">
        <rect id="Program" class="cls-7" x="25" y="75.1" width="145" height="65.6"/>
        <circle class="cls-1" cx="66.5" cy="91.1" r="11"/>
        <path d="M69.3,87s.2-.3.3-.3h.4c.2,0,.5,0,.6.3.2.2.2.5.2.9v1.5c0,.4,0,.7-.2.9-.2.2-.4.3-.6.3s-.4,0-.5-.2c0,0-.2-.4-.3-.7,0-.2,0-.4-.2-.5-.2-.2-.5-.4-.9-.6s-.8-.2-1.2-.2-1,0-1.4.3c-.4.2-.8.6-1.1,1.1s-.5,1.1-.5,1.8v1.1c0,.8.3,1.5.9,2.1.6.5,1.4.8,2.5.8s1.2,0,1.6-.2c.3,0,.5-.3.8-.6.2-.2.3-.3.4-.3h.4c.2,0,.4,0,.6.3.2.2.3.4.3.6s0,.5-.3.8c-.3.4-.8.7-1.3.9-.7.3-1.5.5-2.4.5s-1.9-.2-2.7-.6c-.7-.3-1.2-.9-1.7-1.6s-.7-1.5-.7-2.4v-1.2c0-.9.2-1.7.6-2.5s1-1.4,1.7-1.8,1.5-.6,2.3-.6.9,0,1.4.2c.4,0,.8.3,1.2.5l-.2-.5h0Z"/>
        <g class="cls-11">
          <g class="cls-11">
            <g class="cls-11">
              <g class="cls-11">
                <text class="cls-8" transform="translate(86.4 96.9)"><tspan x="0" y="0">Progra</tspan></text>
              </g>
            </g>
          </g>
          <g class="cls-11">
            <g class="cls-11">
              <g class="cls-11">
                <text class="cls-8" transform="translate(128.7 96.9)"><tspan x="0" y="0">m</tspan></text>
              </g>
            </g>
          </g>
        </g>
        <line class="cls-6" x1="26" y1="107.1" x2="169" y2="107.1"/>
        <line class="cls-6" x1="26" y1="115.1" x2="169" y2="115.1"/>
        <circle class="cls-19" cx="36" cy="129.4" r="3"/>
        <g class="cls-11">
          <g class="cls-11">
            <g class="cls-11">
              <g class="cls-11">
                <text class="cls-8" transform="translate(45 133.7)"><tspan x="0" y="0">Main(args:</tspan></text>
              </g>
            </g>
          </g>
          <g class="cls-11">
            <g class="cls-11">
              <g class="cls-11">
                <text class="cls-8" transform="translate(117.3 133.7)"><tspan x="0" y="0">string[])</tspan></text>
              </g>
            </g>
          </g>
        </g>
      </g>
      <g id="elem_GMN18">
        <path class="cls-2" d="M28.5,291v42.7h222v-32.7l-10-10H102.5l-4-37-4,37H28.5"/>
        <path class="cls-2" d="M240.5,291v10h10l-10-10"/>
        <g class="cls-11">
          <g class="cls-11">
            <g class="cls-11">
              <g class="cls-11">
                <text class="cls-10" transform="translate(34.5 309.5)"><tspan x="0" y="0">Contains</tspan></text>
              </g>
            </g>
          </g>
          <g class="cls-11">
            <g class="cls-11">
              <g class="cls-11">
                <text class="cls-10" transform="translate(89.7 309.5)"><tspan x="0" y="0">Razor</tspan></text>
              </g>
            </g>
          </g>
          <g class="cls-11">
            <g class="cls-11">
              <g class="cls-11">
                <text class="cls-10" transform="translate(128.3 309.5)"><tspan x="0" y="0">pages</tspan></text>
              </g>
            </g>
          </g>
          <g class="cls-11">
            <g class="cls-11">
              <g class="cls-11">
                <text class="cls-10" transform="translate(167.7 309.5)"><tspan x="0" y="0">(.cshtml)</tspan></text>
              </g>
            </g>
          </g>
        </g>
        <g class="cls-11">
          <g class="cls-11">
            <g class="cls-11">
              <g class="cls-11">
                <text class="cls-10" transform="translate(34.5 325.9)"><tspan x="0" y="0">and</tspan></text>
              </g>
            </g>
          </g>
          <g class="cls-11">
            <g class="cls-11">
              <g class="cls-11">
                <text class="cls-10" transform="translate(60.4 325.9)"><tspan x="0" y="0">their</tspan></text>
              </g>
            </g>
          </g>
          <g class="cls-11">
            <g class="cls-11">
              <g class="cls-11">
                <text class="cls-10" transform="translate(89.9 325.9)"><tspan x="0" y="0">page</tspan></text>
              </g>
            </g>
          </g>
          <g class="cls-11">
            <g class="cls-11">
              <g class="cls-11">
                <text class="cls-10" transform="translate(123 325.9)"><tspan x="0" y="0">models</tspan></text>
              </g>
            </g>
          </g>
          <g class="cls-11">
            <g class="cls-11">
              <g class="cls-11">
                <text class="cls-10" transform="translate(169.1 325.9)"><tspan x="0" y="0">(.cshtml.cs)</tspan></text>
              </g>
            </g>
          </g>
        </g>
      </g>
      <g id="link_Cheep_Author">
        <path id="Cheep-Author" class="cls-6" d="M864.1,196.8h51.1"/>
        <polygon class="cls-3" points="858.1 196.8 867.1 200.8 863.1 196.8 867.1 192.8 858.1 196.8"/>
        <polygon class="cls-3" points="921.2 196.8 912.2 192.8 916.2 196.8 912.2 200.8 921.2 196.8"/>
        <g class="cls-11">
          <g class="cls-11">
            <g class="cls-11">
              <g class="cls-11">
                <text class="cls-10" transform="translate(864.8 192.9)"><tspan x="0" y="0">0..</tspan></text>
              </g>
            </g>
          </g>
          <g class="cls-11">
            <g class="cls-11">
              <g class="cls-11">
                <text class="cls-10" transform="translate(879.7 192.9)"><tspan x="0" y="0">*</tspan></text>
              </g>
            </g>
          </g>
        </g>
        <g class="cls-11">
          <g class="cls-11">
            <g class="cls-11">
              <g class="cls-11">
                <text class="cls-10" transform="translate(906.2 192.8)"><tspan x="0" y="0">1</tspan></text>
              </g>
            </g>
          </g>
        </g>
      </g>
      <g id="link_tests_web">
        <g id="tests-to-web">
          <g>
            <line class="cls-4" x1="715.3" y1="189.6" x2="758.7" y2="189.6"/>
            <polygon class="cls-18" points="767.8 189.6 754.9 194.9 758 189.6 754.9 184.3 767.8 189.6"/>
          </g>
        </g>
      </g>
      <g id="link_tests_web-4">
        <g id="tests-to-web-4">
          <g>
            <line class="cls-4" x1="266.9" y1="189.6" x2="321.7" y2="189.6"/>
            <polygon class="cls-18" points="330.9 189.6 318 194.9 321.1 189.6 318 184.3 330.9 189.6"/>
          </g>
        </g>
      </g>
      <g id="link_tests_web-5">
        <g id="tests-to-web-5">
          <g>
            <line class="cls-4" x1="150.4" y1="384.2" x2="150.4" y2="363.8"/>
            <polygon class="cls-18" points="150.4 354.6 155.7 367.6 150.4 364.5 145.1 367.6 150.4 354.6"/>
          </g>
        </g>
      </g>
      <g id="link_tests_web-6">
        <g id="tests-to-web-6">
          <g>
            <polyline class="cls-4" points="270.3 425.8 517.8 425.8 517.8 323.6"/>
            <polygon class="cls-18" points="517.8 314.4 523.1 327.4 517.8 324.3 512.5 327.4 517.8 314.4"/>
          </g>
        </g>
      </g>
      <g id="link_tests_web-7">
        <g id="tests-to-web-7">
          <g>
            <polyline class="cls-4" points="270.3 454.2 889.7 454.2 889.7 252.5"/>
            <polygon class="cls-18" points="889.7 243.3 895 256.2 889.7 253.2 884.4 256.2 889.7 243.3"/>
          </g>
        </g>
      </g>
      <g id="link_tests_web-8">
        <g id="tests-to-web-8">
          <g>
            <line class="cls-4" x1="494.9" y1="189.6" x2="528.2" y2="189.6"/>
            <polygon class="cls-18" points="537.3 189.6 524.4 194.9 527.5 189.6 524.4 184.3 537.3 189.6"/>
          </g>
        </g>
      </g>
      <g id="cluster_infrastructure">
        <polygon class="cls-14" points="306.9 27.9 434.9 27.9 441.9 51.5 739.3 51.5 739.3 314.4 306.9 314.4 306.9 27.9"/>
        <line class="cls-14" x1="306.9" y1="51.5" x2="441.9" y2="51.5"/>
        <g class="cls-11">
          <g class="cls-11">
            <g class="cls-11">
              <text class="cls-8" transform="translate(310.9 44.5)"><tspan x="0" y="0">Chirp.Infrastructur</tspan></text>
            </g>
          </g>
          <g class="cls-11">
            <g class="cls-11">
              <text class="cls-8" transform="translate(425.1 44.5)"><tspan x="0" y="0">e</tspan></text>
            </g>
          </g>
        </g>
      </g>
      <g id="cluster_infrastructure-2">
        <polygon class="cls-14" points="97.2 384.2 225.2 384.2 232.2 407.8 270.3 407.8 270.3 469.4 97.2 469.4 97.2 384.2"/>
        <line class="cls-14" x1="97.2" y1="407.8" x2="232.2" y2="407.8"/>
        <g class="cls-11">
          <g class="cls-11">
            <g class="cls-11">
              <text class="cls-8" transform="translate(101.2 400.7)"><tspan x="0" y="0">Chirp.Tests</tspan></text>
            </g>
          </g>
        </g>
        <g class="cls-11">
          <g class="cls-11">
            <g class="cls-11">
              <text class="cls-8" transform="translate(177 443.7)"><tspan x="0" y="0">...</tspan></text>
            </g>
          </g>
        </g>
      </g>
      <g id="cluster_infrastructure-3">
        <polygon class="cls-14" points="26.6 167.5 154.6 167.5 161.6 191.1 199.6 191.1 199.6 252.7 26.6 252.7 26.6 167.5"/>
        <line class="cls-14" x1="26.6" y1="191.1" x2="161.6" y2="191.1"/>
        <g class="cls-11">
          <g class="cls-11">
            <g class="cls-11">
              <text class="cls-8" transform="translate(30.6 184.1)"><tspan x="0" y="0">Chirp.Pages</tspan></text>
            </g>
          </g>
        </g>
        <g class="cls-11">
          <g class="cls-11">
            <g class="cls-11">
              <text class="cls-8" transform="translate(106.4 227.1)"><tspan x="0" y="0">...</tspan></text>
            </g>
          </g>
        </g>
      </g>
      <g id="cluster_repositories">
        <polygon class="cls-14" points="537.3 72 660.3 72 667.3 95.6 715.3 95.6 715.3 290.5 537.3 290.5 537.3 72"/>
        <line class="cls-14" x1="537.3" y1="95.6" x2="667.3" y2="95.6"/>
        <g class="cls-11">
          <g class="cls-11">
            <g class="cls-11">
              <text class="cls-8" transform="translate(541.3 88.5)"><tspan x="0" y="0">Chirp.Repositorie</tspan></text>
            </g>
          </g>
          <g class="cls-11">
            <g class="cls-11">
              <text class="cls-8" transform="translate(651.3 88.5)"><tspan x="0" y="0">s</tspan></text>
            </g>
          </g>
        </g>
      </g>
      <g id="cluster_services">
        <polygon class="cls-14" points="330.9 71.9 428.9 71.9 435.9 95.5 494.9 95.5 494.9 290.4 330.9 290.4 330.9 71.9"/>
        <line class="cls-14" x1="330.9" y1="95.5" x2="435.9" y2="95.5"/>
        <g class="cls-11">
          <g class="cls-11">
            <g class="cls-11">
              <text class="cls-8" transform="translate(334.9 88.5)"><tspan x="0" y="0">Chirp.Service</tspan></text>
            </g>
          </g>
          <g class="cls-11">
            <g class="cls-11">
              <text class="cls-8" transform="translate(419.9 88.5)"><tspan x="0" y="0">s</tspan></text>
            </g>
          </g>
        </g>
      </g>
      <g id="elem_ICheepRepository">
        <rect id="ICheepRepository" class="cls-7" x="553.3" y="107.4" width="146" height="65.6"/>
        <circle class="cls-5" cx="568.3" cy="123.4" r="11"/>
        <path d="M569.2,120v6.7h1.7c.4,0,.7,0,.9.2s.3.4.3.6,0,.5-.3.6c-.2.2-.5.2-.9.2h-5.1c-.4,0-.7,0-.9-.2s-.3-.4-.3-.6,0-.5.3-.6c.2-.2.5-.2.9-.2h1.7v-6.7h-1.7c-.4,0-.7,0-.9-.2s-.3-.4-.3-.6,0-.5.3-.6c.2-.2.5-.2.9-.2h5.1c.4,0,.7,0,.9.2s.3.4.3.6,0,.5-.3.6c-.2.2-.5.2-.9.2h-1.7Z"/>
        <g class="cls-11">
          <g class="cls-11">
            <g class="cls-11">
              <text class="cls-9" transform="translate(582.3 129.1)"><tspan x="0" y="0">ICheepRepositor</tspan></text>
            </g>
          </g>
          <g class="cls-11">
            <g class="cls-11">
              <text class="cls-9" transform="translate(689.3 129.1)"><tspan x="0" y="0">y</tspan></text>
            </g>
          </g>
        </g>
        <line class="cls-6" x1="554.3" y1="139.4" x2="698.3" y2="139.4"/>
        <g class="cls-11">
          <g class="cls-11">
            <g class="cls-11">
              <text class="cls-8" transform="translate(559.3 157.9)"><tspan x="0" y="0">..</tspan></text>
            </g>
          </g>
          <g class="cls-11">
            <g class="cls-11">
              <text class="cls-8" transform="translate(567.4 157.9)"><tspan x="0" y="0">.</tspan></text>
            </g>
          </g>
        </g>
        <line class="cls-6" x1="554.3" y1="165" x2="698.3" y2="165"/>
      </g>
      <g id="elem_CheepRepository">
        <rect id="CheepRepository" class="cls-7" x="555.3" y="208.5" width="142" height="65.6"/>
        <circle class="cls-1" cx="570.3" cy="224.5" r="11"/>
        <path d="M573.1,220.4c0-.1.2-.3.3-.3s.3-.1.4-.1c.2,0,.5,0,.6.3.2.2.2.5.2.9v1.5c0,.4,0,.7-.2.9s-.4.3-.6.3-.4,0-.5-.2c0-.1-.2-.4-.3-.7,0-.2,0-.4-.2-.5-.2-.3-.5-.4-.9-.6-.4-.1-.8-.2-1.2-.2s-1,.1-1.4.3-.8.6-1.1,1.1-.5,1.1-.5,1.8v1.1c0,.8.3,1.5.9,2.1.6.5,1.4.8,2.5.8s1.2,0,1.6-.2c.3-.1.5-.3.8-.6.2-.2.3-.3.4-.3h.4c.2,0,.4,0,.6.3.2.2.3.4.3.6s0,.5-.3.8c-.3.4-.8.7-1.3.9-.7.3-1.5.5-2.4.5s-1.9-.2-2.7-.6c-.7-.3-1.2-.9-1.7-1.6-.5-.7-.7-1.5-.7-2.4v-1.2c0-.9.2-1.7.6-2.5.4-.8,1-1.4,1.7-1.8.7-.4,1.5-.6,2.3-.6s.9,0,1.4.2c.4.1.8.3,1.2.5l-.2-.5h0Z"/>
        <g class="cls-11">
          <g class="cls-11">
            <g class="cls-11">
              <text class="cls-8" transform="translate(584.3 230.2)"><tspan x="0" y="0">CheepRepositor</tspan></text>
            </g>
          </g>
          <g class="cls-11">
            <g class="cls-11">
              <text class="cls-8" transform="translate(687.3 230.2)"><tspan x="0" y="0">y</tspan></text>
            </g>
          </g>
        </g>
        <line class="cls-6" x1="556.3" y1="240.5" x2="696.3" y2="240.5"/>
        <g class="cls-11">
          <g class="cls-11">
            <g class="cls-11">
              <text class="cls-8" transform="translate(561.3 259)"><tspan x="0" y="0">..</tspan></text>
            </g>
          </g>
          <g class="cls-11">
            <g class="cls-11">
              <text class="cls-8" transform="translate(569.4 259)"><tspan x="0" y="0">.</tspan></text>
            </g>
          </g>
        </g>
        <line class="cls-6" x1="556.3" y1="266.1" x2="696.3" y2="266.1"/>
      </g>
      <g id="elem_ICheepServices">
        <rect id="ICheepServices" class="cls-7" x="347.4" y="107.9" width="131" height="65.6"/>
        <circle class="cls-5" cx="362.4" cy="123.9" r="11"/>
        <path d="M363.4,120.6v6.7h1.7c.4,0,.7,0,.9.2.2.2.3.4.3.6s0,.5-.3.6c-.2.2-.5.2-.9.2h-5.1c-.4,0-.7,0-.9-.2-.2-.2-.3-.4-.3-.6s0-.5.3-.6c.2-.2.5-.2.9-.2h1.7v-6.7h-1.7c-.4,0-.7,0-.9-.2-.2-.2-.3-.4-.3-.6s0-.5.3-.6c.2-.2.5-.2.9-.2h5.1c.4,0,.7,0,.9.2s.3.4.3.6,0,.5-.3.6c-.2.2-.5.2-.9.2h-1.7Z"/>
        <g class="cls-11">
          <g class="cls-11">
            <g class="cls-11">
              <text class="cls-9" transform="translate(376.4 129.7)"><tspan x="0" y="0">ICheepService</tspan></text>
            </g>
          </g>
        </g>
        <line class="cls-6" x1="348.4" y1="139.9" x2="477.4" y2="139.9"/>
        <g class="cls-11">
          <g class="cls-11">
            <g class="cls-11">
              <text class="cls-8" transform="translate(353.4 158.5)"><tspan x="0" y="0">..</tspan></text>
            </g>
          </g>
          <g class="cls-11">
            <g class="cls-11">
              <text class="cls-8" transform="translate(361.5 158.5)"><tspan x="0" y="0">.</tspan></text>
            </g>
          </g>
        </g>
        <line class="cls-6" x1="348.4" y1="165.5" x2="477.4" y2="165.5"/>
      </g>
      <g id="elem_CheepServices">
        <rect id="CheepServices" class="cls-7" x="348.9" y="208.4" width="128" height="65.6"/>
        <circle class="cls-1" cx="363.9" cy="224.4" r="11"/>
        <path d="M366.7,220.3c.1-.1.2-.3.3-.3s.3-.1.4-.1c.2,0,.5,0,.6.3.2.2.2.5.2.9v1.5c0,.4,0,.7-.2.9s-.4.3-.6.3-.4,0-.5-.2c-.1-.1-.2-.4-.3-.7,0-.2-.1-.4-.2-.5-.2-.3-.5-.4-.9-.6-.4-.1-.8-.2-1.2-.2s-1,.1-1.4.3-.8.6-1.1,1.1c-.3.5-.5,1.1-.5,1.8v1.1c0,.8.3,1.5.9,2.1.6.5,1.4.8,2.5.8s1.2,0,1.6-.2c.3-.1.5-.3.8-.6.2-.2.3-.3.4-.3h.4c.2,0,.4,0,.6.3.2.2.3.4.3.6s-.1.5-.3.8c-.3.4-.8.7-1.3.9-.7.3-1.5.5-2.4.5s-1.9-.2-2.7-.6c-.7-.3-1.2-.9-1.7-1.6-.5-.7-.7-1.5-.7-2.4v-1.2c0-.9.2-1.7.6-2.5s1-1.4,1.7-1.8c.7-.4,1.5-.6,2.3-.6s.9,0,1.4.2c.4.1.8.3,1.2.5l-.2-.5h0Z"/>
        <g class="cls-11">
          <g class="cls-11">
            <g class="cls-11">
              <text class="cls-8" transform="translate(377.9 230.2)"><tspan x="0" y="0">CheepService</tspan></text>
            </g>
          </g>
        </g>
        <line class="cls-6" x1="349.9" y1="240.4" x2="475.9" y2="240.4"/>
        <g class="cls-11">
          <g class="cls-11">
            <g class="cls-11">
              <text class="cls-8" transform="translate(354.9 259)"><tspan x="0" y="0">..</tspan></text>
            </g>
          </g>
          <g class="cls-11">
            <g class="cls-11">
              <text class="cls-8" transform="translate(363 259)"><tspan x="0" y="0">.</tspan></text>
            </g>
          </g>
        </g>
        <line class="cls-6" x1="349.9" y1="266" x2="475.9" y2="266"/>
      </g>
      <g id="link_ICheepServices_CheepServices">
        <path id="ICheepServices-backto-CheepServices" class="cls-6" d="M412.9,192v16.1"/>
        <polygon class="cls-6" points="412.9 174 406.9 192 418.9 192 412.9 174"/>
      </g>
      <g id="link_ICheepServices_CheepServices-2">
        <path id="ICheepServices-backto-CheepServices-2" class="cls-6" d="M626.3,192v16.1"/>
        <polygon class="cls-6" points="626.3 174 620.3 192 632.3 192 626.3 174"/>
      </g>
      <g id="elem_GMN24">
        <path class="cls-2" d="M112.4,502.5v26.4h125v-16.4l-10-10h-43.4l-5.7-33-5.7,33h-60.2"/>
        <path class="cls-2" d="M227.4,502.5v10h10l-10-10"/>
      </g>
      <g class="cls-11">
        <g class="cls-11">
          <text class="cls-10" transform="translate(119.7 519.9)"><tspan x="0" y="0">Test Infrastructure</tspan></text>
        </g>
      </g>
    </g>
  </g>
</svg>